<svg width="48" height="49" viewBox="0 0 48 49" fill="none" xmlns="http://www.w3.org/2000/svg">
<rect y="0.5" width="48" height="48" rx="8" fill="#FEE8CD"/>
<path d="M24 17.0867V21.5267" stroke="#434A56" stroke-miterlimit="10" stroke-linecap="round"/>
<path d="M24.0267 11.1666C19.12 11.1666 15.1467 15.14 15.1467 20.0466V22.8466C15.1467 23.7533 14.7733 25.1133 14.3067 25.8866L12.6133 28.7133C11.5733 30.46 12.2933 32.4066 14.2133 33.0466C20.5867 35.1666 27.48 35.1666 33.8533 33.0466C35.6533 32.4466 36.4267 30.34 35.4533 28.7133L33.76 25.8866C33.2933 25.1133 32.92 23.74 32.92 22.8466V20.0466C32.9067 15.1666 28.9067 11.1666 24.0267 11.1666Z" stroke="#434A56" stroke-miterlimit="10" stroke-linecap="round"/>
<path d="M28.44 33.5934C28.44 36.0334 26.44 38.0334 24 38.0334C22.7867 38.0334 21.6667 37.5267 20.8667 36.7267C20.0667 35.9267 19.56 34.8067 19.56 33.5934" stroke="#434A56" stroke-miterlimit="10"/>
</svg>
