<svg width="48" height="49" viewBox="0 0 48 49" fill="none" xmlns="http://www.w3.org/2000/svg">
<rect y="0.5" width="48" height="48" rx="8" fill="#FFDED4"/>
<path d="M21.3333 31.1H16.28C11.7867 31.1 10.6667 29.98 10.6667 25.4866V17.4866C10.6667 12.9933 11.7867 11.8733 16.28 11.8733H30.32C34.8133 11.8733 35.9333 12.9933 35.9333 17.4866" stroke="#434A56" stroke-linecap="round" stroke-linejoin="round"/>
<path d="M21.3333 37.1266V31.1" stroke="#434A56" stroke-linecap="round" stroke-linejoin="round"/>
<path d="M10.6667 25.7667H21.3333" stroke="#434A56" stroke-linecap="round" stroke-linejoin="round"/>
<path d="M16.9867 37.1267H21.3333" stroke="#434A56" stroke-linecap="round" stroke-linejoin="round"/>
<path d="M37.3333 25.5667V33.18C37.3333 36.34 36.5467 37.1267 33.3867 37.1267H28.6533C25.4933 37.1267 24.7067 36.34 24.7067 33.18V25.5667C24.7067 22.4067 25.4933 21.62 28.6533 21.62H33.3867C36.5467 21.62 37.3333 22.4067 37.3333 25.5667Z" stroke="#434A56" stroke-linecap="round" stroke-linejoin="round"/>
<path d="M30.9927 32.8333H31.0047" stroke="#434A56" stroke-linecap="round" stroke-linejoin="round"/>
</svg>
