<svg width="160" height="58" viewBox="0 0 160 58" fill="none" xmlns="http://www.w3.org/2000/svg">
<g filter="url(#filter0_d_6931_143604)">
<rect x="2.5" width="155" height="52" rx="26" fill="#F27E73" shape-rendering="crispEdges"/>
<rect x="2.6" y="0.1" width="154.8" height="51.8" rx="25.9" stroke="#F27E73" stroke-width="0.2" shape-rendering="crispEdges"/>
<path d="M30.208 33V21.786H26.752V20.4H35.104V21.786H31.648V33H30.208ZM36.6194 33V24.594H38.0054V33H36.6194ZM34.5854 21.264L35.3774 20.364L37.8614 23.046L37.3394 23.622L34.5854 21.264ZM50.3317 27.654C50.3317 26.628 49.5577 25.818 48.5677 25.818C47.5957 25.818 46.8037 26.628 46.8037 27.654V33H45.4357V27.654C45.4357 26.628 44.6437 25.818 43.6717 25.818C42.6817 25.818 41.9077 26.628 41.9077 27.654V33H40.5217V24.594H41.9077V25.332C42.4117 24.792 43.0777 24.432 43.8157 24.432C44.6797 24.432 45.5437 24.918 46.1197 25.656C46.6777 24.918 47.5777 24.432 48.5677 24.432C50.3317 24.432 51.7177 25.872 51.7177 27.654V33H50.3317V27.654ZM63.861 27.564C63.861 26.538 63.051 25.728 62.043 25.728C61.017 25.728 60.207 26.502 60.189 27.492V33H58.803V20.4H60.189V25.188C60.729 24.72 61.431 24.432 62.205 24.432C63.879 24.432 65.247 25.8 65.247 27.474V33H63.861V27.564ZM67.6623 33V24.594H69.0483V33H67.6623ZM67.4103 21.174C67.4103 20.634 67.8603 20.238 68.3643 20.238C68.8683 20.238 69.3003 20.634 69.3003 21.174C69.3003 21.678 68.8683 22.092 68.3643 22.092C67.8603 22.092 67.4103 21.678 67.4103 21.174ZM75.3661 33.162C72.9361 33.162 70.9921 31.218 70.9921 28.806C70.9921 26.376 72.9361 24.432 75.3661 24.432C77.7601 24.432 79.6681 26.322 79.7221 28.734L79.7041 29.022H72.3601C72.4681 30.57 73.7641 31.794 75.3661 31.794C76.4101 31.794 77.3641 31.236 77.9041 30.354L79.1641 30.858C78.4441 32.262 77.0221 33.162 75.3661 33.162ZM72.5581 27.762H78.1381C77.7241 26.628 76.6441 25.818 75.3661 25.818C74.0701 25.818 72.9721 26.61 72.5581 27.762ZM73.0621 23.496L74.4481 21.876H76.3921L77.7961 23.496L77.0761 23.928L75.4381 22.506L73.7641 23.928L73.0621 23.496ZM75.8341 19.608C76.1761 19.338 76.6261 19.176 77.1121 19.176C78.3541 19.176 78.9301 19.95 78.9301 20.922C78.9301 21.786 78.3181 22.416 77.3281 22.632L77.0401 21.822C77.6341 21.624 77.9221 21.336 77.9221 20.904C77.9221 20.4 77.5441 20.166 77.1121 20.166C76.9141 20.166 76.6981 20.22 76.5181 20.346L75.8341 19.608ZM84.8727 33.162C82.9647 33.162 81.7047 31.938 81.7047 29.976V24.594H83.0727V29.832C83.0727 31.056 83.8287 31.794 84.8727 31.794C85.9347 31.794 86.6547 31.056 86.6547 29.832V24.594H88.0407V29.976C88.0407 31.938 86.7807 33.162 84.8727 33.162ZM96.109 33V25.89H94.327V24.594H96.109V21.57H97.513V24.594H99.295V25.89H97.513V33H96.109ZM106.066 27.564C106.066 26.538 105.256 25.728 104.248 25.728C103.222 25.728 102.412 26.502 102.394 27.492V33H101.008V20.4H102.394V25.188C102.934 24.72 103.636 24.432 104.41 24.432C106.084 24.432 107.452 25.8 107.452 27.474V33H106.066V27.564ZM113.809 33.162C111.379 33.162 109.435 31.218 109.435 28.806C109.435 26.376 111.379 24.432 113.809 24.432C116.203 24.432 118.111 26.322 118.165 28.734L118.147 29.022H110.803C110.911 30.57 112.207 31.794 113.809 31.794C114.853 31.794 115.807 31.236 116.347 30.354L117.607 30.858C116.887 32.262 115.465 33.162 113.809 33.162ZM111.001 27.762H116.581C116.167 26.628 115.087 25.818 113.809 25.818C112.513 25.818 111.415 26.61 111.001 27.762ZM111.505 22.776L113.161 20.346H114.565L116.239 22.776L115.519 23.208L113.881 21.246L112.207 23.208L111.505 22.776ZM130.066 27.654C130.066 26.628 129.292 25.818 128.302 25.818C127.33 25.818 126.538 26.628 126.538 27.654V33H125.17V27.654C125.17 26.628 124.378 25.818 123.406 25.818C122.416 25.818 121.642 26.628 121.642 27.654V33H120.256V24.594H121.642V25.332C122.146 24.792 122.812 24.432 123.55 24.432C124.414 24.432 125.278 24.918 125.854 25.656C126.412 24.918 127.312 24.432 128.302 24.432C130.066 24.432 131.452 25.872 131.452 27.654V33H130.066V27.654Z" fill="white"/>
</g>
<defs>
<filter id="filter0_d_6931_143604" x="0.5" y="0" width="159" height="58" filterUnits="userSpaceOnUse" color-interpolation-filters="sRGB">
<feFlood flood-opacity="0" result="BackgroundImageFix"/>
<feColorMatrix in="SourceAlpha" type="matrix" values="0 0 0 0 0 0 0 0 0 0 0 0 0 0 0 0 0 0 127 0" result="hardAlpha"/>
<feOffset dy="4"/>
<feGaussianBlur stdDeviation="1"/>
<feComposite in2="hardAlpha" operator="out"/>
<feColorMatrix type="matrix" values="0 0 0 0 0 0 0 0 0 0 0 0 0 0 0 0 0 0 0.04 0"/>
<feBlend mode="normal" in2="BackgroundImageFix" result="effect1_dropShadow_6931_143604"/>
<feBlend mode="normal" in="SourceGraphic" in2="effect1_dropShadow_6931_143604" result="shape"/>
</filter>
</defs>
</svg>
