<svg width="64" height="65" viewBox="0 0 64 65" fill="none" xmlns="http://www.w3.org/2000/svg">
<path d="M50.0275 43.0028C47.1014 47.9702 42.0479 51.9318 36.4651 53.9043C30.8837 55.8763 24.8885 55.8248 20.0166 52.955C15.1447 50.0852 12.1932 44.8665 11.2121 39.0289C10.2308 33.1897 11.2458 26.8493 14.1719 21.8818C17.098 16.9144 22.1515 12.9529 27.7343 10.9804C33.3157 9.00835 39.3109 9.05982 44.1828 11.9296C49.0547 14.7995 52.0062 20.0181 52.9872 25.8558C53.9685 31.6949 52.9536 38.0353 50.0275 43.0028Z" stroke="#F27E73" stroke-width="2"/>
<g clip-path="url(#clip0_6924_92821)">
<path fill-rule="evenodd" clip-rule="evenodd" d="M33.9209 42.4424V33.4424H36.6533L37.0996 29.4424H33.9209V27.4941C33.9209 26.4641 33.9472 25.4424 35.3865 25.4424H36.8443V22.5825C36.8443 22.5395 35.5921 22.4424 34.3253 22.4424C31.6796 22.4424 30.023 24.0996 30.023 27.1426V29.4424H27.0996V33.4424H30.023V42.4424H33.9209Z" fill="#F27E73"/>
</g>
<defs>
<clipPath id="clip0_6924_92821">
<rect width="10" height="20" fill="white" transform="translate(27.0996 22.4424)"/>
</clipPath>
</defs>
</svg>
