<svg width="19" height="19" viewBox="0 0 19 19" fill="none" xmlns="http://www.w3.org/2000/svg">
<g clip-path="url(#clip0_6924_92830)">
<path fill-rule="evenodd" clip-rule="evenodd" d="M18.3095 18.4424H14.6111V12.1431C14.6111 10.416 13.9548 9.45088 12.5878 9.45088C11.1007 9.45088 10.3238 10.4553 10.3238 12.1431V18.4424H6.75951V6.44239H10.3238V8.05878C10.3238 8.05878 11.3954 6.07576 13.9419 6.07576C16.4872 6.07576 18.3095 7.63008 18.3095 10.8447V18.4424ZM2.50736 4.87108C1.29329 4.87108 0.309509 3.87957 0.309509 2.65673C0.309509 1.43389 1.29329 0.442383 2.50736 0.442383C3.72142 0.442383 4.70462 1.43389 4.70462 2.65673C4.70462 3.87957 3.72142 4.87108 2.50736 4.87108ZM0.666935 18.4424H4.38354V6.44239H0.666935V18.4424Z" fill="#F27E73"/>
</g>
<defs>
<clipPath id="clip0_6924_92830">
<rect width="18" height="18" fill="white" transform="translate(0.309509 0.442383)"/>
</clipPath>
</defs>
</svg>
