<svg width="63" height="65" viewBox="0 0 63 65" fill="none" xmlns="http://www.w3.org/2000/svg">
<path d="M49.5478 43.0028C46.6216 47.9702 41.5682 51.9318 35.9854 53.9043C30.404 55.8763 24.4088 55.8248 19.5369 52.955C14.6649 50.0852 11.7135 44.8665 10.7324 39.0289C9.75111 33.1897 10.7661 26.8493 13.6922 21.8818C16.6183 16.9144 21.6718 12.9529 27.2546 10.9804C32.836 9.00835 38.8312 9.05982 43.7031 11.9296C48.575 14.7995 51.5264 20.0181 52.5075 25.8558C53.4888 31.6949 52.4739 38.0353 49.5478 43.0028Z" stroke="#F27E73" stroke-width="2"/>
<g clip-path="url(#clip0_6924_92834)">
<path d="M32.5196 22.7626C35.6743 22.7626 36.0446 22.7767 37.2915 22.833C38.4446 22.8845 39.068 23.0767 39.4852 23.2408C40.0384 23.4564 40.4321 23.7095 40.8446 24.122C41.2571 24.5345 41.5149 24.9283 41.7259 25.4814C41.8852 25.8986 42.0821 26.522 42.1337 27.6751C42.1899 28.922 42.204 29.2923 42.204 32.447C42.204 35.6017 42.1899 35.972 42.1337 37.2189C42.0821 38.372 41.8899 38.9955 41.7259 39.4126C41.5102 39.9658 41.2571 40.3595 40.8446 40.772C40.4321 41.1845 40.0384 41.4423 39.4852 41.6533C39.068 41.8126 38.4446 42.0095 37.2915 42.0611C36.0446 42.1173 35.6743 42.1314 32.5196 42.1314C29.3649 42.1314 28.9946 42.1173 27.7477 42.0611C26.5946 42.0095 25.9712 41.8173 25.554 41.6533C25.0009 41.4376 24.6071 41.1845 24.1946 40.772C23.7821 40.3595 23.5243 39.9658 23.3134 39.4126C23.154 38.9955 22.9571 38.372 22.9055 37.2189C22.8493 35.972 22.8352 35.6017 22.8352 32.447C22.8352 29.2923 22.8493 28.922 22.9055 27.6751C22.9571 26.522 23.1493 25.8986 23.3134 25.4814C23.529 24.9283 23.7821 24.5345 24.1946 24.122C24.6071 23.7095 25.0009 23.4517 25.554 23.2408C25.9712 23.0814 26.5946 22.8845 27.7477 22.833C28.9946 22.772 29.3649 22.7626 32.5196 22.7626ZM32.5196 20.6345C29.3134 20.6345 28.9102 20.6486 27.6493 20.7048C26.393 20.7611 25.5352 20.9626 24.7852 21.2533C24.0071 21.5533 23.3509 21.9611 22.6946 22.6173C22.0384 23.2736 21.6352 23.9345 21.3305 24.708C21.0399 25.458 20.8384 26.3158 20.7821 27.5767C20.7259 28.833 20.7118 29.2361 20.7118 32.4423C20.7118 35.6486 20.7259 36.0517 20.7821 37.3126C20.8384 38.5689 21.0399 39.4267 21.3305 40.1814C21.6305 40.9595 22.0384 41.6158 22.6946 42.272C23.3509 42.9283 24.0118 43.3314 24.7852 43.6361C25.5352 43.9267 26.393 44.1283 27.654 44.1845C28.9149 44.2408 29.3134 44.2548 32.5243 44.2548C35.7352 44.2548 36.1337 44.2408 37.3946 44.1845C38.6509 44.1283 39.5087 43.9267 40.2634 43.6361C41.0415 43.3361 41.6977 42.9283 42.354 42.272C43.0102 41.6158 43.4134 40.9548 43.718 40.1814C44.0087 39.4314 44.2102 38.5736 44.2665 37.3126C44.3227 36.0517 44.3368 35.6533 44.3368 32.4423C44.3368 29.2314 44.3227 28.833 44.2665 27.572C44.2102 26.3158 44.0087 25.458 43.718 24.7033C43.418 23.9251 43.0102 23.2689 42.354 22.6126C41.6977 21.9564 41.0368 21.5533 40.2634 21.2486C39.5134 20.958 38.6555 20.7564 37.3946 20.7001C36.129 20.6486 35.7259 20.6345 32.5196 20.6345Z" fill="#F27E73"/>
<path d="M32.5196 26.3767C29.1727 26.3767 26.454 29.0908 26.454 32.4423C26.454 35.7939 29.1727 38.508 32.5196 38.508C35.8665 38.508 38.5852 35.7892 38.5852 32.4423C38.5852 29.0955 35.8665 26.3767 32.5196 26.3767ZM32.5196 36.3798C30.3446 36.3798 28.5821 34.6173 28.5821 32.4423C28.5821 30.2673 30.3446 28.5048 32.5196 28.5048C34.6946 28.5048 36.4571 30.2673 36.4571 32.4423C36.4571 34.6173 34.6946 36.3798 32.5196 36.3798Z" fill="#F27E73"/>
<path d="M38.8243 27.5534C39.6061 27.5534 40.2399 26.9196 40.2399 26.1378C40.2399 25.356 39.6061 24.7222 38.8243 24.7222C38.0425 24.7222 37.4087 25.356 37.4087 26.1378C37.4087 26.9196 38.0425 27.5534 38.8243 27.5534Z" fill="#F27E73"/>
</g>
<defs>
<clipPath id="clip0_6924_92834">
<rect width="24" height="24" fill="white" transform="translate(20.5196 20.4424)"/>
</clipPath>
</defs>
</svg>
