<svg width="32" height="32" viewBox="0 0 32 32" fill="none" xmlns="http://www.w3.org/2000/svg">
<path d="M16 32C24.8366 32 32 24.8366 32 16C32 7.16344 24.8366 0 16 0C7.16344 0 0 7.16344 0 16C0 24.8366 7.16344 32 16 32Z" fill="#F27E73"/>
<path d="M25.8006 11.4988C25.1149 11.8028 24.3774 12.0084 23.6038 12.1003C24.3936 11.6271 24.9997 10.8784 25.2858 9.98483C24.5468 10.4232 23.7279 10.7412 22.8572 10.9126C22.1595 10.1697 21.1655 9.70532 20.0649 9.70532C17.9532 9.70532 16.2404 11.418 16.2404 13.5298C16.2404 13.8295 16.2744 14.1213 16.34 14.4014C13.1616 14.242 10.3433 12.7195 8.45693 10.405C8.12779 10.9697 7.93898 11.6271 7.93898 12.3279C7.93898 13.6544 8.61465 14.8255 9.64029 15.5112C9.01367 15.4915 8.42356 15.3195 7.90817 15.0323C7.90789 15.0485 7.90789 15.0648 7.90789 15.0808C7.90789 16.9338 9.22672 18.4794 10.9759 18.8305C10.6554 18.9183 10.3168 18.9648 9.96857 18.9648C9.72157 18.9648 9.48228 18.9412 9.24897 18.8967C9.73555 20.4157 11.1476 21.5215 12.8216 21.5526C11.5124 22.5785 9.86361 23.1897 8.07132 23.1897C7.76328 23.1897 7.45811 23.1718 7.15948 23.1361C8.8511 24.2216 10.8619 24.8545 13.0215 24.8545C20.0561 24.8545 23.903 19.027 23.903 13.9727C23.903 13.807 23.8993 13.6419 23.8919 13.4781C24.6397 12.9391 25.288 12.2657 25.8006 11.4988Z" fill="#F1F2F2"/>
</svg>
