<svg width="190" height="100" viewBox="0 0 190 100" fill="none" xmlns="http://www.w3.org/2000/svg">
<g clip-path="url(#clip0_6924_92819)">
<path d="M58.6062 9.4318C58.9599 9.28502 59.3078 9.1265 59.6659 8.9856C59.3298 9.11769 59.004 9.26741 58.6708 9.40538C58.6502 9.41418 58.6282 9.42299 58.6062 9.4318Z" fill="#F389A7"/>
<path d="M61.574 13.9041C61.7119 13.9466 61.8499 13.9877 61.9864 14.0317C61.8499 13.9892 61.7105 13.9466 61.574 13.9041Z" fill="#F389A7"/>
<path d="M62.7291 7.87299C62.9596 7.7952 63.1944 7.73062 63.4263 7.65576C63.3999 7.66457 63.3735 7.67337 63.3471 7.68218C63.143 7.74823 62.9331 7.80401 62.7291 7.87299Z" fill="#F389A7"/>
<path d="M65.9435 6.8881C66.1989 6.81618 66.4573 6.75307 66.7141 6.68408C66.651 6.70023 66.5908 6.72078 66.5277 6.73692C66.334 6.78976 66.1373 6.83379 65.9435 6.88663V6.8881Z" fill="#F389A7"/>
<path d="M69.2181 6.05749C69.4984 5.99291 69.7802 5.9342 70.062 5.87402C69.9622 5.89604 69.8639 5.92099 69.7656 5.94301C69.5836 5.98264 69.4001 6.0164 69.2181 6.05749Z" fill="#F389A7"/>
<path d="M64.5903 14.8904C64.7429 14.9432 64.8926 14.9961 65.0438 15.0489C64.8926 14.9961 64.7415 14.9432 64.5903 14.8904Z" fill="#F389A7"/>
<path d="M55.5063 10.8159C55.9231 10.6163 56.337 10.4108 56.7598 10.22C56.7744 10.217 56.7891 10.2141 56.8038 10.2126C56.3679 10.4093 55.9363 10.6104 55.5063 10.8174V10.8159Z" fill="#F389A7"/>
<path d="M67.2234 12.0167C74.1835 13.0925 80.9103 15.2193 87.2114 18.0139C93.6299 20.857 99.636 24.4134 105.108 28.5011C106.085 29.232 107.05 29.9865 108.005 30.7541C107.932 30.9097 107.858 31.0653 107.784 31.2179C107.177 32.4846 106.313 33.7997 104.824 34.3986C103.612 34.8873 102.249 34.7846 101.011 34.4015C99.4481 33.9201 98.042 33.0849 96.7459 32.194C95.24 31.1607 93.8442 30.0144 92.4909 28.8343C91.1699 27.6806 89.8915 26.4903 88.5955 25.3146C87.5886 24.4002 86.5758 23.4902 85.4398 22.6961C80.511 19.2454 74.9585 16.3877 69.039 14.4664C66.0052 13.48 62.8524 12.708 59.6204 12.4614C58.3391 12.3645 57.0577 12.3396 55.7763 12.3631C55.86 12.3807 55.9422 12.4056 56.0259 12.4232C55.132 12.2251 54.2352 12.0416 53.3325 11.889C53.7787 11.6512 54.2396 11.4413 54.6917 11.2153C55.3419 11.1933 55.995 11.1815 56.6438 11.183C60.1796 11.183 63.736 11.4765 67.2205 12.0152L67.2234 12.0167Z" fill="#E9B0A7"/>
<path d="M79.3251 4.47381C79.6773 4.44299 80.0281 4.40923 80.3789 4.38281C80.169 4.39896 79.9621 4.42391 79.7522 4.44152C79.6098 4.45326 79.4674 4.46207 79.3251 4.47381Z" fill="#F389A7"/>
<path d="M93.1484 4.43994C93.5638 4.4737 93.9807 4.49865 94.3946 4.53975C94.0643 4.50746 93.7311 4.48985 93.4009 4.46196C93.3172 4.45462 93.2336 4.44728 93.1484 4.43994Z" fill="#F389A7"/>
<path d="M82.7596 4.24473C83.1325 4.22858 83.5038 4.20657 83.8751 4.19482C83.6315 4.20216 83.3893 4.22124 83.1457 4.23005C83.0165 4.23592 82.8873 4.23739 82.7582 4.24326L82.7596 4.24473Z" fill="#F389A7"/>
<path d="M86.2119 4.16401C86.6023 4.16401 86.9927 4.15667 87.3831 4.16107C87.1072 4.15814 86.8313 4.16695 86.5553 4.16548C86.4408 4.16548 86.3263 4.16254 86.2119 4.16401Z" fill="#F389A7"/>
<path d="M89.6772 4.22852C90.0823 4.24466 90.4874 4.25347 90.8925 4.27548C90.5872 4.25934 90.2819 4.25494 89.9751 4.24173C89.8753 4.23732 89.777 4.23145 89.6772 4.22852Z" fill="#F389A7"/>
<path d="M96.6271 4.7981C97.0439 4.84947 97.4622 4.89203 97.8791 4.94928C97.5327 4.90084 97.1819 4.86855 96.834 4.82452C96.765 4.81571 96.6961 4.8069 96.6271 4.7981Z" fill="#F389A7"/>
<path d="M103.718 5.98999C104.064 6.06338 104.414 6.12649 104.758 6.20428C104.449 6.13383 104.135 6.07952 103.825 6.01201C103.79 6.00467 103.753 5.99733 103.718 5.98999Z" fill="#F389A7"/>
<path d="M100.128 5.30737C100.53 5.37489 100.935 5.43067 101.337 5.50405C100.988 5.44094 100.636 5.3925 100.286 5.33379C100.233 5.32499 100.182 5.31618 100.129 5.30737H100.128Z" fill="#F389A7"/>
<path d="M75.9184 4.85084C76.2472 4.80681 76.576 4.76277 76.9047 4.72314C76.7315 4.74369 76.5598 4.77305 76.3866 4.79506C76.231 4.81561 76.074 4.83029 75.9184 4.85084Z" fill="#F389A7"/>
<path d="M72.547 5.37776C72.8523 5.32345 73.1576 5.27061 73.4629 5.21924C73.3264 5.24272 73.1913 5.27061 73.0548 5.29409C72.8861 5.32345 72.7158 5.34693 72.547 5.37776Z" fill="#F389A7"/>
<path d="M59.6219 12.4612C62.8524 12.7078 66.0067 13.4799 69.0405 14.4662C74.9615 16.3875 80.5125 19.2452 85.4413 22.6959C86.5773 23.49 87.5901 24.4 88.597 25.3144C89.8915 26.4901 91.1699 27.6805 92.4924 28.8341C93.8442 30.0127 95.2415 31.1605 96.7474 32.1938C98.042 33.0848 99.4481 33.9214 101.013 34.4013C102.25 34.783 103.614 34.8872 104.826 34.3984C106.316 33.7996 107.179 32.4844 107.785 31.2178C107.858 31.0651 107.932 30.9095 108.007 30.754C108.194 30.9051 108.382 31.0548 108.569 31.2075C108.796 31.3939 109.024 31.5803 109.25 31.7682C109.648 32.1014 110.041 32.4389 110.431 32.778C110.615 32.938 110.8 33.0936 110.982 33.255C111.535 33.7452 112.08 34.2428 112.614 34.7477C112.762 34.8886 112.906 35.0339 113.053 35.1748C113.445 35.5521 113.832 35.9337 114.212 36.3197C114.322 36.4312 114.43 36.5472 114.538 36.6602C114.525 36.8319 114.501 36.9993 114.499 37.1725C114.496 37.2987 114.497 37.4235 114.499 37.5467C109.715 37.7992 105.523 39.9803 102.924 43.2196C100.928 39.9348 98.4721 36.876 95.6892 34.0285C91.7615 30.0083 87.2158 26.4549 82.3502 23.3256C77.7649 20.3739 72.8699 17.9316 67.6359 15.9809C66.7802 15.6624 65.9127 15.3513 65.0423 15.046C64.8912 14.9931 64.7414 14.9403 64.5888 14.8875C63.7287 14.591 62.8598 14.3033 61.985 14.0288C61.847 13.9863 61.7091 13.9437 61.5726 13.9011C59.7481 13.3375 57.8987 12.8355 56.0259 12.4216C55.9422 12.4025 55.86 12.3791 55.7764 12.3614C57.0577 12.338 58.3391 12.3614 59.6204 12.4598L59.6219 12.4612Z" fill="#E79D9E"/>
<path d="M61.7428 8.2312C61.2379 8.4088 60.7345 8.58933 60.2354 8.77868C60.7345 8.58787 61.2379 8.4088 61.7428 8.2312Z" fill="#C7E8E5"/>
<path d="M96.8355 4.82447C97.1834 4.8685 97.5327 4.90079 97.8806 4.94923C97.995 4.96537 98.111 4.98298 98.2255 4.99913C97.7631 4.93308 97.2993 4.88171 96.8355 4.823V4.82447Z" fill="#C7E8E5"/>
<path d="M76.3867 4.79505C76.5599 4.77304 76.7316 4.74515 76.9048 4.72313C77.257 4.68057 77.6122 4.64387 77.966 4.60571C77.439 4.66149 76.9121 4.72754 76.3867 4.79359V4.79505Z" fill="#C7E8E5"/>
<path d="M66.5277 6.73712C66.5908 6.71951 66.651 6.70043 66.7141 6.68429C67.1691 6.56246 67.6256 6.44944 68.0835 6.33643C67.5625 6.46412 67.0444 6.59769 66.5277 6.73712Z" fill="#C7E8E5"/>
<path d="M69.7656 5.94304C69.8654 5.92102 69.9622 5.8946 70.0621 5.87405C70.4848 5.78305 70.9104 5.69939 71.3361 5.61426C70.8106 5.71847 70.2866 5.82855 69.7641 5.94304H69.7656Z" fill="#C7E8E5"/>
<path d="M73.0548 5.29568C73.1913 5.27219 73.3263 5.24284 73.4628 5.22082C73.8518 5.15624 74.2422 5.09753 74.6327 5.03882C74.1057 5.11808 73.5803 5.20614 73.0548 5.29714V5.29568Z" fill="#C7E8E5"/>
<path d="M86.5568 4.16555C86.8327 4.16555 87.1086 4.15674 87.3846 4.16115C87.6209 4.16408 87.8572 4.16995 88.092 4.17582C87.5798 4.16555 87.0675 4.16848 86.5568 4.16702V4.16555Z" fill="#C7E8E5"/>
<path d="M83.1472 4.23155C83.3908 4.22128 83.633 4.20367 83.8766 4.19633C84.1526 4.18752 84.4285 4.18312 84.7044 4.17725C84.1849 4.18899 83.6667 4.211 83.1486 4.23155H83.1472Z" fill="#C7E8E5"/>
<path d="M79.7522 4.4414C79.9621 4.42379 80.169 4.39884 80.3789 4.38269C80.6945 4.35921 81.0086 4.34013 81.3242 4.32104C80.7987 4.3548 80.2747 4.39737 79.7522 4.4414Z" fill="#C7E8E5"/>
<path d="M66.0301 8.86664C73.8738 8.12689 81.7836 8.55694 89.4585 10.214C96.79 11.7948 103.819 14.4339 110.257 17.8919C114.27 20.0466 118.142 22.5197 121.677 25.2982C121.099 25.2894 120.532 25.2615 120.007 25.2336C117.077 25.0854 113.916 24.8726 111.358 26.3785C109.628 27.3986 108.786 29.11 108.008 30.7465C108.196 30.8977 108.381 31.0548 108.567 31.2074C108.381 31.0548 108.192 30.9051 108.005 30.7539C107.051 29.9862 106.087 29.2318 105.108 28.5009C99.636 24.4132 93.6299 20.8582 87.2114 18.0137C80.9103 15.2191 74.1821 13.0923 67.2234 12.0165C63.739 11.4778 60.1826 11.1857 56.6467 11.1842C55.998 11.1842 55.3463 11.1945 54.6946 11.2165C54.677 11.2165 54.6594 11.2165 54.6418 11.2165C54.9251 11.0741 55.2201 10.9509 55.5063 10.8144C55.9364 10.6074 56.3679 10.4063 56.8038 10.2096C59.8465 9.61373 62.9258 9.15725 66.0301 8.86517V8.86664ZM88.5192 16.0587L88.597 16.1306L89.6361 15.8532L89.6948 15.8635L90.5505 16.4564L90.6533 16.4139L90.668 15.4628L90.6959 15.4173L91.6 14.8933L91.5853 14.7949L90.5535 14.4838L90.5124 14.4456L90.2159 13.5282L90.1058 13.5092L89.4527 14.268L89.3998 14.29L88.3122 14.2474L88.2579 14.334L88.8861 15.1134L88.8934 15.1648L88.5162 16.0557L88.5192 16.0587Z" fill="#C7E8E5"/>
<path d="M100.285 5.33374C100.636 5.39245 100.988 5.44089 101.336 5.504C101.412 5.51868 101.488 5.53336 101.565 5.54657C101.14 5.46731 100.71 5.40566 100.283 5.33228L100.285 5.33374Z" fill="#C7E8E5"/>
<path d="M93.3995 4.46191C93.7312 4.4898 94.0629 4.50741 94.3931 4.53971C94.5487 4.55438 94.7058 4.572 94.8614 4.58814C94.3741 4.53824 93.8868 4.50301 93.3995 4.46191Z" fill="#C7E8E5"/>
<path d="M103.825 6.01196C104.135 6.07801 104.449 6.13379 104.758 6.20424C104.797 6.21305 104.833 6.22185 104.871 6.23066C104.525 6.1514 104.173 6.08682 103.825 6.01343V6.01196Z" fill="#C7E8E5"/>
<path d="M89.9752 4.24341C90.2805 4.25662 90.5857 4.25955 90.8925 4.27717C91.0892 4.28744 91.2844 4.30065 91.4811 4.31386C90.9791 4.28304 90.4771 4.26689 89.9766 4.24488L89.9752 4.24341Z" fill="#C7E8E5"/>
<path d="M63.347 7.68234C63.3735 7.67353 63.3999 7.66326 63.4263 7.65592C63.9092 7.50034 64.395 7.35356 64.8823 7.20825C64.3686 7.3609 63.8564 7.51795 63.3485 7.68234H63.347Z" fill="#C7E8E5"/>
<path d="M57.1971 10.0278C57.6624 9.82089 58.135 9.62715 58.6062 9.43194C58.6267 9.42313 58.6488 9.41432 58.6708 9.40552C58.1776 9.60954 57.6844 9.81209 57.1971 10.0264V10.0278Z" fill="#C7E8E5"/>
<path d="M109.25 31.7683C109.648 32.1015 110.041 32.4391 110.431 32.7781C110.041 32.4391 109.648 32.1 109.25 31.7683Z" fill="#C7E8E5"/>
<path d="M114.538 36.6604C114.43 36.5473 114.322 36.4328 114.212 36.3198C113.832 35.9338 113.445 35.5522 113.053 35.175C112.906 35.0326 112.762 34.8888 112.614 34.7479C112.08 34.243 111.535 33.7454 110.982 33.2551C110.8 33.0937 110.615 32.9366 110.431 32.7781C110.041 32.4376 109.648 32.1 109.25 31.7683C109.024 31.5804 108.796 31.394 108.569 31.2076C108.382 31.055 108.197 30.8979 108.01 30.7467C108.787 29.1102 109.628 27.3988 111.359 26.3787C113.917 24.8728 117.077 25.0841 120.008 25.2338C120.534 25.2603 121.1 25.2896 121.679 25.2984C122.304 25.7901 122.915 26.2921 123.518 26.8029C123.693 26.9496 123.863 27.1008 124.035 27.2491C124.162 27.3592 124.284 27.4736 124.41 27.5852C124.372 27.5896 124.335 27.5969 124.297 27.6013C123.986 27.6366 123.679 27.6806 123.376 27.7378C123.307 27.751 123.233 27.7554 123.164 27.7687C123.173 27.7687 123.183 27.7731 123.192 27.7745C118.47 28.7359 114.886 32.285 114.538 36.6604Z" fill="#8CD3D6"/>
<path d="M139.745 22.8002C139.502 22.6152 139.251 22.4376 139.004 22.2556C139.251 22.4391 139.5 22.6152 139.745 22.8002Z" fill="#F3C642"/>
<path d="M137.131 20.8891C136.786 20.644 136.434 20.4062 136.086 20.167C136.436 20.4077 136.786 20.6455 137.131 20.8891Z" fill="#F3C642"/>
<path d="M143.002 25.3836C142.751 25.1766 142.505 24.9652 142.252 24.7612C142.506 24.9652 142.751 25.1766 143.002 25.3836Z" fill="#F3C642"/>
<path d="M145.658 27.6481C145.348 27.3751 145.041 27.1006 144.727 26.8306C145.04 27.1006 145.348 27.3751 145.658 27.6481Z" fill="#F3C642"/>
<path d="M124.636 15.4027C125.89 16.6151 126.901 18.0946 127.456 19.6577C127.952 21.058 128.05 22.7151 126.879 23.8805C125.62 25.1354 123.581 25.3292 121.682 25.2998C122.306 25.79 122.915 26.292 123.516 26.8013C122.913 26.2906 122.303 25.7886 121.677 25.2969C118.142 22.5184 114.268 20.0452 110.257 17.8906C103.819 14.434 96.79 11.795 89.4585 10.2127C81.7836 8.5556 73.8724 8.12555 66.0301 8.8653C62.9258 9.15738 59.8465 9.61386 56.8038 10.2098C56.7891 10.2127 56.7744 10.2156 56.7598 10.2171C56.7495 10.2186 56.7407 10.22 56.7304 10.223C56.8845 10.154 57.043 10.0938 57.1972 10.0263C57.683 9.81054 58.1762 9.60799 58.6708 9.40544C59.004 9.26747 59.3298 9.11775 59.6659 8.98566C59.8538 8.91227 60.0461 8.85062 60.234 8.7787C60.733 8.58789 61.2364 8.40883 61.7413 8.23123C62.0716 8.11527 62.396 7.98464 62.7277 7.87309C62.9317 7.80411 63.1416 7.74833 63.3456 7.68228C63.8549 7.5179 64.3672 7.36085 64.8794 7.2082C65.2346 7.10252 65.5839 6.98803 65.9421 6.88823C66.1358 6.83392 66.3325 6.78989 66.5262 6.73851C67.0429 6.59908 67.561 6.46551 68.0821 6.33782C68.4608 6.24388 68.8365 6.14554 69.2181 6.05747C69.4001 6.01638 69.5836 5.98262 69.7656 5.94299C70.2881 5.82704 70.8106 5.71842 71.3376 5.61421C71.7412 5.53495 72.1434 5.45276 72.5485 5.37937C72.7173 5.34855 72.8875 5.32506 73.0563 5.29571C73.5803 5.2047 74.1058 5.11811 74.6341 5.03738C75.0627 4.9728 75.4899 4.90822 75.9199 4.85097C76.0755 4.83043 76.2325 4.81428 76.3881 4.7952C76.9136 4.72768 77.4405 4.6631 77.9674 4.60733C78.4195 4.55889 78.873 4.51486 79.3266 4.47376C79.469 4.46055 79.6113 4.45321 79.7537 4.44147C80.2777 4.39744 80.8017 4.35487 81.3257 4.32111C81.8027 4.29029 82.2812 4.26681 82.7597 4.24479C82.8888 4.23892 83.018 4.23598 83.1472 4.23158C83.6653 4.21103 84.1849 4.18755 84.703 4.17727C85.2064 4.167 85.7084 4.16553 86.2118 4.16406C86.3263 4.16406 86.4408 4.16553 86.5553 4.16553C87.0676 4.16553 87.5783 4.16406 88.0906 4.17434C88.619 4.18461 89.1474 4.2081 89.6772 4.22864C89.777 4.23305 89.8754 4.23745 89.9752 4.24185C90.4772 4.26387 90.9791 4.28002 91.4796 4.31084C92.0359 4.3446 92.5922 4.39303 93.147 4.43853C93.2307 4.44587 93.3143 4.45321 93.3995 4.46055C93.8868 4.50165 94.3755 4.53687 94.8614 4.58678C95.4514 4.64696 96.0385 4.72475 96.6271 4.79667C96.6961 4.80547 96.765 4.81428 96.834 4.82309C97.2978 4.8818 97.7631 4.9317 98.224 4.99922C98.861 5.09022 99.4936 5.20177 100.126 5.30745C100.179 5.31625 100.23 5.32506 100.283 5.33387C100.71 5.40579 101.139 5.4689 101.565 5.54816C102.285 5.68173 103 5.83731 103.716 5.98996C103.752 5.9973 103.788 6.00463 103.824 6.01197C104.171 6.08683 104.522 6.14994 104.87 6.2292C105.965 6.47872 107.053 6.75026 108.131 7.04381C111.014 7.82906 113.828 8.7743 116.581 9.83549C116.957 10.0292 117.331 10.2259 117.701 10.4299C120.224 11.8214 122.63 13.4623 124.635 15.4012L124.636 15.4027Z" fill="#F6BE6D"/>
<path d="M121.809 12.0254C121.457 11.8639 121.098 11.7112 120.742 11.5542C121.098 11.7112 121.456 11.8639 121.809 12.0254Z" fill="#F3C642"/>
<path d="M131.649 17.2844C131.263 17.048 130.877 16.8132 130.488 16.5813C130.877 16.8117 131.263 17.048 131.649 17.2844Z" fill="#F3C642"/>
<path d="M124.421 27.5822C124.421 27.5822 124.413 27.5822 124.41 27.5837C124.284 27.4721 124.162 27.3591 124.035 27.2476C124.164 27.3591 124.293 27.4692 124.421 27.5822Z" fill="#F3C642"/>
<path d="M145.236 28.4468C141.326 28.3675 137.738 29.5916 135.01 31.6641C132.994 29.2115 129.734 27.5852 126.022 27.5103C125.571 27.5015 125.128 27.5221 124.691 27.5573C124.6 27.5647 124.51 27.5735 124.419 27.5837C124.291 27.4707 124.162 27.3606 124.033 27.2491C123.861 27.1008 123.69 26.9497 123.516 26.8029C122.915 26.2936 122.306 25.7916 121.682 25.3014C123.581 25.3307 125.62 25.137 126.879 23.882C128.049 22.7166 127.952 21.0595 127.456 19.6593C126.901 18.0961 125.891 16.6166 124.636 15.4043C122.631 13.4639 120.224 11.8229 117.703 10.433C117.333 10.2289 116.958 10.0323 116.583 9.83851C116.54 9.81649 116.501 9.79448 116.458 9.77246C116.819 9.91043 117.174 10.0631 117.532 10.2054C117.945 10.3698 118.359 10.5328 118.768 10.703C119.432 10.979 120.088 11.2652 120.741 11.5558C121.096 11.7128 121.456 11.8655 121.808 12.0269C122.79 12.4775 123.764 12.9428 124.726 13.4257C124.917 13.5211 125.102 13.6239 125.291 13.7207C126.078 14.1229 126.858 14.5309 127.632 14.9537C127.999 15.1547 128.359 15.3632 128.723 15.5686C129.314 15.9018 129.904 16.2379 130.487 16.5829C130.876 16.8133 131.262 17.0496 131.648 17.2859C132.2 17.6235 132.75 17.967 133.295 18.3148C133.676 18.5599 134.058 18.8051 134.435 19.0546C134.99 19.4201 135.537 19.7929 136.083 20.1686C136.433 20.4093 136.783 20.6471 137.128 20.8907C137.761 21.3384 138.383 21.7964 139.003 22.2558C139.249 22.4392 139.499 22.6154 139.744 22.8003C140.591 23.4417 141.426 24.0963 142.249 24.7612C142.503 24.9653 142.748 25.1766 142.999 25.3836C143.579 25.8621 144.156 26.342 144.724 26.8308C145.037 27.1008 145.345 27.3753 145.655 27.6483C145.991 27.9448 146.331 28.2369 146.663 28.5378C146.193 28.4893 145.718 28.4556 145.235 28.4453L145.236 28.4468Z" fill="#F4AA49"/>
<path d="M114.5 37.5482C114.497 37.4249 114.496 37.3002 114.5 37.1739C114.503 37.0008 114.526 36.832 114.54 36.6617C114.887 32.2863 118.472 28.7373 123.193 27.7759C124.004 27.9006 124.802 28.112 125.576 28.4276C127.215 29.0939 128.501 30.1815 129.569 31.4379C130.275 32.2702 131.285 33.8275 132.647 33.826C134.279 33.8231 135.797 32.4756 137.046 31.7183C138.725 30.7041 140.598 30.2476 142.631 30.1404C143.989 30.07 145.41 30.2168 146.772 30.5588C145.978 30.6644 145.238 30.9683 144.862 31.6317C144.561 32.1571 144.48 32.7369 144.627 33.3137C144.77 33.8774 145.129 34.3705 145.536 34.8153C146.268 35.6196 147.222 36.2771 148.096 36.9611C149.039 37.6979 149.982 38.4377 150.927 39.176C151.423 39.5649 151.926 40.0229 152.587 40.1814C152.751 40.221 152.916 40.2416 153.077 40.2445C153.481 40.2533 153.871 40.155 154.22 39.9774C154.245 40.698 154.279 41.4172 154.423 42.1218C154.649 43.2431 155.223 44.0812 156.522 44.4276C158.235 44.8856 160.084 44.9619 161.834 45.2863C162.041 45.3244 162.251 45.3699 162.463 45.4184C162.214 46.0099 162.24 46.6366 162.333 47.2663C162.393 47.6728 162.513 48.0779 162.748 48.4375C162.94 48.7311 163.2 48.9982 163.479 49.236C163.714 49.4386 163.966 49.6264 164.197 49.8363L164.405 50.0389L164.43 50.0682C164.499 50.1607 164.558 50.2561 164.612 50.3544C164.7 50.5878 164.753 50.8315 164.803 51.0722C164.872 51.3965 164.967 51.7018 165.12 52.0027C165.371 52.4988 165.877 52.9744 166.44 53.2122C166.77 53.3516 167.075 53.4397 167.444 53.4661C167.474 53.469 167.507 53.469 167.537 53.4705C167.865 53.4778 168.182 53.4 168.483 53.2885C168.694 53.2092 168.888 53.0947 169.062 52.9568C168.71 53.9108 168.095 54.7827 167.457 55.6237C167.306 55.3977 167.084 55.2025 166.843 55.0615C166.583 54.9104 166.258 54.8238 165.935 54.8179C165.767 54.815 165.6 54.8326 165.444 54.8751C164.988 54.997 164.555 55.2641 164.342 55.6472C164.204 55.8923 164.137 56.133 164.128 56.4075C164.123 56.5278 164.128 56.6453 164.119 56.7641C164.094 56.8566 164.062 56.9432 164.025 57.0298C163.79 57.4525 163.486 57.8415 163.306 58.2862C163.108 58.7676 163.097 59.3269 163.25 59.8171C163.417 60.3455 163.777 60.8944 164.325 61.1894C164.564 61.3186 164.819 61.3817 165.073 61.3861C165.237 61.3891 165.4 61.3685 165.557 61.3245C165.557 61.3245 165.557 61.3245 165.559 61.3245C165.782 62.6293 166.24 63.9151 166.249 65.2375C166.256 66.5849 165.756 67.9426 164.672 68.9157C161.84 71.4623 157.661 69.4808 154.301 69.1741C152.323 68.995 150.407 69.3003 148.844 70.4217C147.686 71.2539 146.751 72.2857 145.738 73.2442C144.737 74.1923 143.61 75.0994 142.232 75.6043C140.789 76.1357 139.088 76.3103 137.56 75.9287C134.846 75.2506 133.6 72.9345 131.865 71.2172C131.002 70.3629 130.023 69.7582 128.734 69.519C127.363 69.2665 125.978 69.654 124.735 70.1296C123.505 70.5978 122.301 71.1438 121.021 71.5078C121.103 71.0308 120.979 70.5185 120.662 70.0973C120.129 69.3869 119.316 68.9025 118.479 68.4945C117.94 68.2318 117.378 68.0028 116.797 67.8134C116.521 67.4935 116.201 67.2131 115.777 67.037C115.442 66.8976 115.096 66.8168 114.738 66.8095C114.57 66.8066 114.4 66.8183 114.227 66.8491C113.725 66.9372 113.252 67.2366 113.02 67.6388C112.543 68.4695 112.934 69.4324 113.406 70.2C113.415 70.2132 113.423 70.2264 113.431 70.2397C112.634 69.6951 111.933 69.0464 111.397 68.2846C110.924 67.6124 110.588 66.8418 110.478 66.0551C110.345 65.1172 110.56 64.1984 110.787 63.2854C110.98 62.5075 111.29 61.5476 110.916 60.7726C110.65 60.2237 110.082 59.9228 109.482 59.6923C107.927 59.095 106.258 58.7251 104.889 57.8048C104.204 57.3454 103.649 56.7818 103.181 56.1638L103.699 52.3579C103.709 52.2772 103.765 52.2068 103.848 52.1686L108.172 50.2003C108.381 50.1064 108.372 49.8437 108.159 49.7571L103.724 47.9458C103.64 47.9106 103.578 47.8431 103.564 47.7624L102.736 43.5499C102.731 43.5264 102.714 43.5103 102.702 43.4897C102.773 43.3958 102.855 43.3092 102.928 43.2182C105.528 39.9788 109.718 37.7977 114.503 37.5453L114.5 37.5482ZM159.245 57.1135C159.25 57.0239 159.231 56.9403 159.186 56.861C159.157 56.7788 159.108 56.7084 159.035 56.6482C158.941 56.5704 158.832 56.5102 158.709 56.4735C158.611 56.4442 158.512 56.4383 158.412 56.4559L158.223 56.497C158.129 56.522 158.048 56.5645 157.979 56.6276L157.861 56.7568L157.83 56.8126C157.72 56.9256 157.652 57.0782 157.649 57.225V57.2588C157.634 57.3439 157.626 57.429 157.632 57.5156V57.5421V57.6154L157.64 57.6654L157.636 57.9149C157.633 58.0925 157.714 58.251 157.844 58.3802C157.976 58.5108 158.176 58.571 158.368 58.5827C158.471 58.5886 158.568 58.571 158.658 58.5328C158.75 58.5078 158.831 58.4653 158.9 58.4022L159.048 58.2202C159.127 58.1262 159.173 58.0088 159.187 57.8943L159.195 57.8767L159.22 57.7534L159.237 57.5773L159.221 57.4334C159.228 57.3263 159.236 57.2192 159.243 57.1135H159.245ZM156.645 60.3616C156.889 61.0691 158.054 61.188 158.663 61.1102C159.199 61.0427 159.87 60.7755 159.864 60.115C159.861 59.8376 159.675 59.5911 159.444 59.4487C159.022 59.1874 158.452 59.0832 157.966 59.1082C157.576 59.1272 157.078 59.2623 156.802 59.5837L156.697 59.7364C156.594 59.9242 156.575 60.1591 156.644 60.3631L156.645 60.3616ZM123.331 29.7456C123.18 29.7133 123.031 29.6972 122.882 29.6942C122.432 29.6854 121.991 29.797 121.569 29.9452C121.158 30.0876 120.761 30.2667 120.387 30.4736C119.54 30.9433 118.759 31.5686 118.329 32.3729C117.842 33.2844 117.722 34.2839 118.188 35.2233C118.391 35.6328 118.751 36.0012 119.182 36.239C119.536 36.4327 119.939 36.5267 120.348 36.5355C120.549 36.5399 120.751 36.5237 120.949 36.487C121.997 36.2992 122.812 35.58 123.582 34.9855C123.98 34.6773 124.378 34.3691 124.776 34.0608C125.162 33.7629 125.545 33.4737 125.847 33.1009C126.515 32.2775 126.326 31.1268 125.508 30.4296C124.981 29.979 124.268 29.7559 123.546 29.7412C123.474 29.7412 123.402 29.7412 123.33 29.7427L123.331 29.7456ZM140.854 57.1957C140.843 57.2793 140.842 57.363 140.851 57.4452C140.864 57.5582 140.874 57.6727 140.912 57.7813C140.948 57.8855 140.996 57.9883 141.052 58.0866C141.168 58.2906 141.438 58.4183 141.69 58.4227C141.825 58.4257 141.951 58.3978 142.069 58.3405C142.182 58.2847 142.273 58.2084 142.342 58.1116C142.406 58.0015 142.471 57.884 142.497 57.7608L142.527 57.6081L142.55 57.4555V57.4085L142.519 57.1927L142.517 57.1854L142.468 57.0063L142.439 56.9359C142.409 56.8141 142.34 56.704 142.245 56.6086L142.235 56.5998L142.101 56.4823L141.938 56.3957L141.75 56.3473L141.552 56.3429C141.452 56.3444 141.36 56.3693 141.273 56.4148L141.119 56.5146L141 56.6438L140.923 56.7979C140.886 56.9256 140.859 57.0606 140.857 57.1942L140.854 57.1957ZM146.623 59.7276C147.274 60.4981 148.191 61.003 149.276 61.1425C150.368 61.2819 151.477 60.9531 152.304 60.3337C152.534 60.162 152.519 59.8244 152.318 59.641C152.1 59.4428 151.755 59.4531 151.527 59.6248C150.375 60.4893 148.518 60.3411 147.601 59.2535C147.42 59.0392 147.13 58.9203 146.838 59.0627C146.598 59.1801 146.443 59.5147 146.623 59.7276ZM139.474 60.0108C139.716 60.7183 140.883 60.8372 141.492 60.7594C142.028 60.6919 142.699 60.4247 142.693 59.7642C142.69 59.4868 142.503 59.2403 142.271 59.0979C141.85 58.8366 141.281 58.7339 140.793 58.7574C140.403 58.7764 139.907 58.9115 139.631 59.2329L139.525 59.3856C139.423 59.5734 139.403 59.8083 139.472 60.0123L139.474 60.0108Z" fill="#CBE4EB"/>
<path d="M168.443 59.3107C169.287 60.7006 169.754 62.2932 169.719 63.9752C169.611 69.2606 164.621 73.4452 158.574 73.3219C156.763 73.2852 155.062 72.8654 153.572 72.155C151.677 76.9649 146.402 80.3628 140.259 80.238C135.812 80.147 131.893 78.2301 129.426 75.3254C127.456 76.2618 125.187 76.7741 122.78 76.7257C115.426 76.5759 109.571 71.245 109.702 64.8192C109.712 64.3407 109.755 63.871 109.828 63.4101C105.732 61.9614 102.522 59.0215 101.045 55.38L102.639 56.745C102.808 56.8889 103.09 56.8023 103.118 56.5982L103.176 56.1667C103.644 56.7847 104.201 57.3483 104.885 57.8077C106.254 58.728 107.924 59.0978 109.477 59.6952C110.078 59.9242 110.646 60.2266 110.911 60.7755C111.286 61.5505 110.976 62.5104 110.782 63.2883C110.556 64.2013 110.34 65.1201 110.474 66.058C110.584 66.8432 110.922 67.6138 111.393 68.2875C111.927 69.0493 112.63 69.698 113.427 70.2426C113.433 70.2514 113.439 70.2602 113.445 70.2704C114.242 71.5224 115.608 72.5014 117.171 72.9315C117.579 73.043 118.017 73.1282 118.448 73.137C118.507 73.137 118.564 73.137 118.621 73.137C119.244 73.1194 119.787 72.9594 120.277 72.6291C120.697 72.3459 120.939 71.9481 121.015 71.5239C121.015 71.5195 121.015 71.5151 121.015 71.5107C122.295 71.1467 123.499 70.6007 124.729 70.1325C125.972 69.6569 127.358 69.2694 128.728 69.5219C130.017 69.7611 130.995 70.3658 131.859 71.2201C133.594 72.9374 134.84 75.2535 137.554 75.9316C139.081 76.3132 140.782 76.1385 142.226 75.6072C143.604 75.1023 144.731 74.1938 145.732 73.2471C146.745 72.2886 147.68 71.2568 148.838 70.4246C150.401 69.3032 152.317 68.9979 154.295 69.177C157.655 69.4837 161.834 71.4652 164.667 68.9186C165.75 67.9455 166.25 66.5878 166.243 65.2404C166.236 63.918 165.778 62.6322 165.553 61.3274C165.907 61.229 166.224 61.0191 166.437 60.7227C166.754 60.2809 166.727 59.7583 166.792 59.2593C166.857 58.9584 166.953 58.6663 167.084 58.383C167.313 57.9721 167.605 57.5919 167.684 57.1325C167.722 56.9153 167.711 56.6922 167.649 56.4779C167.674 56.3605 167.667 56.2372 167.648 56.1051C167.623 55.9363 167.554 55.7748 167.454 55.6266C168.092 54.7856 168.707 53.9137 169.06 52.9597C169.063 52.9582 169.064 52.9567 169.067 52.9553C169.378 52.7102 169.631 52.3946 169.811 52.082C170.366 51.1176 170.46 50.0109 170.159 48.963C169.666 47.2339 168.177 45.9467 166.497 45.0162C166.153 44.6903 165.679 44.4496 165.198 44.3395C164.966 44.2867 164.73 44.2544 164.495 44.25C164.143 44.2426 163.793 44.2955 163.467 44.4246C163.102 44.57 162.778 44.8474 162.596 45.1571C162.544 45.2451 162.5 45.3332 162.463 45.4227C162.251 45.3743 162.041 45.3288 161.834 45.2906C160.086 44.9662 158.235 44.8899 156.522 44.432C155.223 44.0841 154.648 43.2475 154.423 42.1261C154.279 41.4216 154.244 40.7024 154.221 39.9817C154.36 39.9113 154.492 39.8262 154.617 39.7322C155.652 38.9411 155.591 37.6289 155.285 36.5589C155.047 35.7282 154.639 34.918 154.097 34.2032C153.595 33.5412 152.991 32.9453 152.305 32.436C152.265 32.3171 152.194 32.2085 152.091 32.1233C151.863 31.9355 151.618 31.7608 151.366 31.5979C150.434 31.002 149.312 30.6629 148.173 30.5514C147.997 30.5338 147.814 30.522 147.627 30.5191C147.35 30.5132 147.065 30.525 146.788 30.5616C146.782 30.5616 146.778 30.5646 146.772 30.5646C145.41 30.2226 143.989 30.0758 142.631 30.1463C140.598 30.2519 138.725 30.7084 137.046 31.7241C135.797 32.4815 134.28 33.8289 132.647 33.8318C131.285 33.8318 130.277 32.276 129.57 31.4438C128.502 30.1874 127.217 29.0998 125.576 28.4334C124.801 28.1178 124.002 27.9065 123.194 27.7817C123.183 27.7802 123.174 27.7773 123.166 27.7758C123.235 27.7612 123.308 27.7568 123.377 27.745C123.679 27.6878 123.988 27.6437 124.299 27.6085C124.337 27.6041 124.374 27.5953 124.412 27.5924C124.415 27.5924 124.419 27.5924 124.422 27.5909C124.512 27.5821 124.603 27.5718 124.694 27.5645C125.131 27.5278 125.574 27.5087 126.025 27.5175C129.735 27.5938 132.997 29.2201 135.013 31.6713C137.741 29.5973 141.331 28.3732 145.239 28.4539C145.722 28.4642 146.198 28.498 146.667 28.5464C154.334 29.3331 160.228 35.0985 160.087 41.9735L160.083 42.1305C160.613 42.0748 161.154 42.0498 161.706 42.0616C167.821 42.1863 172.692 46.6204 172.584 51.966C172.522 54.9529 170.919 57.5934 168.449 59.318L168.443 59.3107Z" fill="#B2DAE2"/>
<path d="M159.221 57.7535L159.196 57.8767L159.189 57.8944C159.173 58.0088 159.127 58.1263 159.049 58.2202L158.901 58.4022C158.832 58.4638 158.752 58.5079 158.659 58.5328C158.568 58.571 158.473 58.5886 158.37 58.5827C158.178 58.571 157.978 58.5123 157.846 58.3802C157.714 58.2496 157.633 58.091 157.637 57.9149L157.642 57.6654L157.636 57.6155V57.5421H157.635V57.5157C157.629 57.4291 157.637 57.3439 157.651 57.2588V57.2251C157.655 57.0783 157.723 56.9256 157.831 56.8126L157.862 56.7568L157.981 56.6277C158.05 56.566 158.131 56.522 158.225 56.497L158.414 56.456C158.514 56.4383 158.614 56.4442 158.71 56.4736C158.834 56.5103 158.944 56.5704 159.036 56.6482C159.108 56.7084 159.158 56.7803 159.187 56.8611C159.233 56.9403 159.252 57.024 159.246 57.1135C159.239 57.2207 159.231 57.3263 159.224 57.4335L159.24 57.5773L159.223 57.7535H159.221Z" fill="#7C5A8C"/>
<path d="M141.118 56.5162L141.272 56.4164C141.359 56.3709 141.451 56.346 141.551 56.3445L141.749 56.3489L141.937 56.3973L142.1 56.4839L142.233 56.6013L142.244 56.6101C142.339 56.7056 142.409 56.8156 142.437 56.9375L142.467 57.0079L142.515 57.187L142.518 57.1943L142.549 57.4101V57.457L142.525 57.6097L142.496 57.7623C142.47 57.8856 142.404 58.0031 142.34 58.1131C142.271 58.21 142.18 58.2863 142.067 58.3421C141.95 58.3993 141.824 58.4258 141.689 58.4243C141.436 58.4184 141.166 58.2922 141.05 58.0882C140.995 57.9898 140.948 57.8871 140.911 57.7829C140.873 57.6743 140.864 57.5583 140.849 57.4468C140.839 57.3646 140.842 57.2809 140.852 57.1973C140.855 57.0637 140.882 56.9287 140.918 56.801L140.996 56.6468L141.115 56.5177L141.118 56.5162Z" fill="#7C5A8C"/>
<path d="M146.836 59.0626C147.128 58.9217 147.417 59.0406 147.599 59.2534C148.517 60.341 150.373 60.4893 151.526 59.6248C151.755 59.453 152.1 59.4428 152.317 59.6409C152.518 59.8244 152.533 60.1605 152.302 60.3337C151.476 60.9516 150.366 61.2819 149.274 61.1424C148.188 61.003 147.272 60.4981 146.622 59.7275C146.441 59.5147 146.597 59.1786 146.836 59.0626Z" fill="#7C5A8C"/>
<path d="M156.802 59.5823C157.078 59.2609 157.574 59.1258 157.966 59.1068C158.452 59.0833 159.023 59.186 159.444 59.4473C159.675 59.5897 159.863 59.8377 159.864 60.1136C159.87 60.7741 159.199 61.0413 158.663 61.1088C158.054 61.1866 156.889 61.0677 156.645 60.3602C156.575 60.1562 156.595 59.9228 156.698 59.7335L156.804 59.5809L156.802 59.5823Z" fill="#F27896"/>
<path d="M139.631 59.233C139.907 58.9115 140.403 58.7765 140.793 58.7574C141.281 58.7339 141.85 58.8367 142.271 59.0979C142.502 59.2403 142.69 59.4883 142.693 59.7643C142.699 60.4248 142.028 60.6919 141.492 60.7594C140.883 60.8372 139.716 60.7183 139.474 60.0109C139.403 59.8068 139.424 59.5735 139.527 59.3841L139.632 59.2315L139.631 59.233Z" fill="#F27896"/>
<path d="M152.585 40.18C151.925 40.0215 151.421 39.565 150.925 39.1746C149.982 38.4363 149.039 37.698 148.094 36.9598C147.221 36.2758 146.268 35.6182 145.534 34.8139C145.128 34.3677 144.768 33.876 144.626 33.3124C144.478 32.7355 144.56 32.1558 144.861 31.6303C145.236 30.9669 145.976 30.6631 146.77 30.5574C146.776 30.5574 146.78 30.5544 146.786 30.5544C149.18 31.1577 151.389 32.3862 152.734 34.193C153.566 35.31 153.923 36.6222 154.094 37.927C154.184 38.6036 154.197 39.2891 154.221 39.9745C153.873 40.1521 153.481 40.2505 153.077 40.2417C152.916 40.2387 152.751 40.2182 152.587 40.1785L152.585 40.18Z" fill="#F3ECF5"/>
<path d="M154.094 37.9284C153.923 36.6221 153.567 35.3099 152.734 34.1945C151.389 32.3876 149.182 31.1606 146.786 30.5559C147.064 30.5206 147.347 30.5074 147.626 30.5133C147.812 30.5177 147.994 30.528 148.172 30.5456C149.311 30.6557 150.432 30.9947 151.364 31.5921C151.617 31.755 151.862 31.9297 152.089 32.1176C152.192 32.2027 152.264 32.3113 152.304 32.4302C152.989 32.9395 153.592 33.5354 154.096 34.1974C154.637 34.9122 155.045 35.7239 155.283 36.5531C155.59 37.6231 155.65 38.9339 154.615 39.7264C154.492 39.8218 154.358 39.9055 154.219 39.976C154.196 39.2905 154.182 38.6051 154.093 37.9284H154.094Z" fill="#F0E6F2"/>
<path d="M167.536 53.4677C167.505 53.4677 167.473 53.4662 167.442 53.4633C167.074 53.4368 166.768 53.3488 166.438 53.2093C165.877 52.973 165.371 52.4975 165.119 51.9999C164.966 51.699 164.871 51.3937 164.802 51.0693C164.752 50.8286 164.699 50.585 164.611 50.3516C164.558 50.2533 164.498 50.1579 164.429 50.0654L164.404 50.036L164.195 49.8335C163.966 49.6251 163.714 49.4357 163.478 49.2332C163.199 48.9954 162.939 48.7297 162.747 48.4347C162.51 48.0751 162.392 47.67 162.331 47.2634C162.239 46.6338 162.214 46.007 162.462 45.4155C165.841 46.2008 169.729 48.376 169.34 51.8238C169.296 52.2127 169.2 52.5855 169.067 52.9481C169.064 52.9495 169.063 52.951 169.06 52.9525C168.885 53.089 168.69 53.2049 168.48 53.2842C168.179 53.3972 167.863 53.4735 167.535 53.4662L167.536 53.4677Z" fill="#F3ECF5"/>
<path d="M169.34 51.8251C169.727 48.3773 165.841 46.2035 162.462 45.4168C162.5 45.3273 162.544 45.2392 162.594 45.1512C162.778 44.84 163.102 44.5626 163.466 44.4187C163.792 44.2896 164.141 44.2367 164.493 44.2441C164.73 44.2485 164.966 44.2808 165.196 44.3336C165.678 44.4437 166.152 44.6844 166.495 45.0102C168.176 45.9408 169.664 47.228 170.157 48.9571C170.458 50.0065 170.364 51.1117 169.81 52.076C169.629 52.3887 169.377 52.7042 169.065 52.9494C169.199 52.5868 169.294 52.214 169.338 51.8251H169.34Z" fill="#F0E6F2"/>
<path d="M166.939 56.2974C165.904 57.6551 165.312 58.9731 165.461 60.6258C165.481 60.8592 165.513 61.0926 165.553 61.3245C165.398 61.3671 165.233 61.3891 165.069 61.3861C164.816 61.3803 164.559 61.3186 164.32 61.1895C163.774 60.8945 163.413 60.3455 163.246 59.8171C163.092 59.3254 163.103 58.7662 163.302 58.2862C163.484 57.84 163.786 57.4525 164.021 57.0298C164.057 56.9432 164.091 56.8566 164.115 56.7642C164.125 56.6453 164.119 56.5279 164.123 56.4075C164.132 56.1316 164.198 55.8923 164.338 55.6472C164.552 55.2641 164.984 54.997 165.44 54.8752C165.596 54.8341 165.763 54.815 165.93 54.8179C166.252 54.8238 166.578 54.9104 166.839 55.0616C167.08 55.201 167.301 55.3962 167.452 55.6237C167.281 55.8512 167.106 56.0758 166.936 56.2989L166.939 56.2974Z" fill="#F3ECF5"/>
<path d="M165.461 60.6259C165.312 58.9732 165.904 57.6552 166.939 56.2975C167.109 56.0744 167.284 55.8483 167.455 55.6223C167.555 55.7706 167.624 55.9335 167.649 56.1008C167.668 56.2329 167.675 56.3562 167.651 56.4736C167.711 56.6879 167.722 56.911 167.686 57.1282C167.606 57.5891 167.314 57.9693 167.085 58.3788C166.953 58.662 166.856 58.9541 166.793 59.255C166.729 59.7541 166.755 60.278 166.438 60.7184C166.225 61.0149 165.908 61.2248 165.555 61.3231C165.555 61.3231 165.555 61.3231 165.553 61.3231C165.513 61.0912 165.481 60.8578 165.461 60.6244V60.6259Z" fill="#F0E6F2"/>
<path d="M125.847 33.1039C125.545 33.4753 125.162 33.7644 124.776 34.0639C124.378 34.3721 123.98 34.6803 123.583 34.9885C122.812 35.583 121.997 36.3022 120.949 36.4901C120.751 36.5253 120.549 36.5429 120.348 36.5385C119.94 36.5297 119.536 36.4358 119.182 36.242C118.751 36.0042 118.391 35.6358 118.188 35.2263C117.722 34.2855 117.842 33.2859 118.329 32.3759C118.759 31.5731 119.54 30.9463 120.387 30.4766C120.76 30.2682 121.158 30.0906 121.569 29.9483C121.991 29.8 122.432 29.6885 122.882 29.6973C123.032 29.7002 123.182 29.7163 123.332 29.7486C123.403 29.7457 123.475 29.7457 123.547 29.7472C124.268 29.7618 124.981 29.9849 125.51 30.4355C126.327 31.1327 126.517 32.2835 125.849 33.1069L125.847 33.1039Z" fill="#F3ECF5"/>
<path d="M113.019 67.6402C113.251 67.238 113.724 66.94 114.226 66.8505C114.397 66.8197 114.568 66.8065 114.736 66.8109C115.094 66.8182 115.441 66.8989 115.775 67.0384C116.198 67.2145 116.52 67.4949 116.796 67.8148C117.377 68.0056 117.939 68.2331 118.478 68.4959C119.314 68.9039 120.127 69.3883 120.66 70.0987C120.977 70.5199 121.102 71.0307 121.02 71.5092C121.02 71.5136 121.02 71.518 121.02 71.5224C120.842 71.5723 120.665 71.6193 120.483 71.6618C119.766 71.8292 119.041 71.9069 118.321 71.8923C117.416 71.8732 116.52 71.7103 115.658 71.3932C114.87 71.1026 114.121 70.7269 113.448 70.2689C113.442 70.2601 113.436 70.2513 113.43 70.241C113.421 70.2278 113.414 70.2146 113.405 70.2014C112.932 69.4323 112.542 68.4695 113.019 67.6402Z" fill="#F3ECF5"/>
<path d="M115.658 71.3919C116.518 71.7075 117.415 71.8718 118.321 71.8909C119.041 71.9056 119.766 71.8278 120.483 71.6605C120.663 71.6179 120.842 71.571 121.02 71.521C120.943 71.9452 120.701 72.343 120.281 72.6263C119.79 72.9565 119.247 73.1165 118.626 73.1341C118.569 73.1356 118.511 73.1356 118.453 73.1341C118.021 73.1253 117.584 73.0402 117.176 72.9286C115.613 72.4986 114.246 71.5196 113.449 70.2676C114.123 70.7241 114.871 71.1013 115.659 71.3919H115.658Z" fill="#F0E6F2"/>
<path d="M103.132 47.4702C103.097 48.5945 102.733 49.7144 102.074 50.6787C100.743 52.6279 97.8277 53.9827 95.2679 53.0081C95.0345 52.9185 94.8129 52.8128 94.6015 52.6954L95.9475 50.3162C95.99 50.2428 95.9871 50.1577 95.9416 50.0857L93.5565 46.3474C93.442 46.1683 93.6108 45.9525 93.8442 45.9819L98.679 46.6174C98.7714 46.6292 98.8639 46.6013 98.9285 46.5411L102.246 43.4236L102.092 43.5689C102.695 44.8121 103.173 46.1052 103.132 47.4702Z" fill="#FFE38E"/>
<path d="M103.561 47.7654C103.577 47.8461 103.637 47.9151 103.721 47.9488L108.156 49.7601C108.369 49.8467 108.378 50.1094 108.17 50.2033L103.846 52.1716C103.763 52.2098 103.708 52.2802 103.696 52.3609L103.178 56.1668L103.119 56.5984C103.091 56.8024 102.808 56.889 102.64 56.7451L101.046 55.3801L99.1413 53.748C99.0738 53.6907 98.9799 53.6658 98.8889 53.6805L94.0966 54.4877C93.8662 54.5259 93.6842 54.3175 93.7869 54.134L94.6016 52.6941C94.8129 52.813 95.0345 52.9172 95.2679 53.0068C97.8277 53.9813 100.743 52.6266 102.074 50.6774C102.733 49.7131 103.097 48.5932 103.132 47.4689C103.175 46.1039 102.695 44.8108 102.092 43.5676L102.246 43.4223C102.387 43.2902 102.618 43.3401 102.699 43.4913C102.709 43.5118 102.727 43.5265 102.733 43.5514L103.561 47.7639V47.7654Z" fill="#FAD882"/>
<path d="M151.969 21.0286C151.941 21.9166 151.652 22.8016 151.132 23.5634C150.08 25.1031 147.776 26.1745 145.753 25.404C145.568 25.3335 145.392 25.2499 145.226 25.1574L146.29 23.2757L146.284 23.0937L144.4 20.1391C144.309 19.9967 144.444 19.8265 144.627 19.8514L148.449 20.3534L148.646 20.2932L151.269 17.8289L151.147 17.9433C151.623 18.9267 152.003 19.9483 151.969 21.0271V21.0286Z" fill="#FFE38E"/>
<path d="M152.533 24.7434L152.415 24.8932L151.959 28.2426C151.937 28.404 151.714 28.4716 151.58 28.3585L148.815 25.991L148.615 25.9382L144.828 26.5767C144.646 26.6075 144.501 26.4416 144.585 26.2963L145.228 25.1588C145.393 25.2528 145.57 25.335 145.754 25.4054C147.777 26.1745 150.081 25.1045 151.134 23.5648C151.653 22.8031 151.943 21.918 151.97 21.03C152.003 19.9512 151.624 18.9282 151.149 17.9462L151.27 17.8318C151.397 17.7129 151.624 17.7731 151.655 17.933L152.309 21.2619L152.436 21.4072L155.941 22.8383C156.11 22.9073 156.115 23.1142 155.951 23.1891L152.534 24.7434H152.533Z" fill="#FAD882"/>
<path d="M163.806 34.1959C164.053 35.1162 163.635 36.2581 162.553 36.6104C162.453 36.6427 162.353 36.6676 162.251 36.6838L161.866 35.6299L161.788 35.5624L159.846 35.0413C159.752 35.0164 159.733 34.9092 159.811 34.8593L161.458 33.8319L161.508 33.7468L161.467 32.0559C162.057 32.2775 162.626 32.5447 163.064 32.9659C163.423 33.3123 163.686 33.7409 163.808 34.1959H163.806Z" fill="#FFE38E"/>
<path d="M163.947 35.8573L163.849 35.9013L162.692 37.3515C162.637 37.4219 162.513 37.4043 162.484 37.3236L162.251 36.6851C162.353 36.6675 162.453 36.644 162.553 36.6117C163.635 36.2594 164.053 35.1175 163.806 34.1972C163.685 33.7422 163.422 33.3136 163.062 32.9673C162.625 32.546 162.055 32.2789 161.465 32.0572L161.464 31.9751C161.462 31.8899 161.573 31.84 161.65 31.8914L163.287 32.9482L163.395 32.9629L165.311 32.389C165.403 32.3611 165.491 32.4389 165.462 32.5196L164.827 34.2002L164.846 34.2941L166.071 35.712C166.131 35.7795 166.076 35.8778 165.977 35.8764L163.949 35.8587L163.947 35.8573Z" fill="#FAD882"/>
<path d="M158.769 75.7686C158.81 76.2339 158.716 76.7109 158.492 77.1337C158.038 77.9894 156.904 78.6601 155.798 78.3548C155.697 78.3269 155.6 78.2917 155.508 78.2506L155.945 77.2159L155.93 77.1219L154.761 75.6674C154.705 75.5969 154.764 75.5015 154.862 75.5059L156.889 75.5852L156.987 75.5441L158.201 74.1292L158.145 74.1952C158.456 74.6869 158.718 75.2021 158.768 75.7686H158.769Z" fill="#FFE38E"/>
<path d="M157.326 78.4944L155.389 79.0096C155.296 79.0346 155.21 78.9553 155.244 78.8746L155.508 78.2493C155.6 78.2904 155.699 78.3257 155.798 78.3535C156.904 78.6588 158.038 77.9881 158.492 77.1324C158.715 76.7097 158.81 76.2326 158.769 75.7674C158.719 75.2008 158.456 74.6856 158.147 74.1939L158.203 74.1279C158.261 74.0603 158.383 74.0809 158.411 74.1631L158.961 75.8716L159.038 75.9405L160.959 76.5203C161.05 76.5482 161.068 76.6568 160.985 76.7038L159.299 77.6813L159.248 77.765L159.22 79.538C159.22 79.6232 159.107 79.6701 159.03 79.6173L157.436 78.5121L157.329 78.4944H157.326Z" fill="#FAD882"/>
<path d="M125.899 80.9557L125.953 80.8691L127.041 80.9117L127.093 80.8897L127.745 80.1309L127.714 80.1661C127.882 80.4288 128.021 80.7062 128.049 81.01C128.071 81.2596 128.021 81.5164 127.901 81.7425C127.657 82.2019 127.048 82.5615 126.456 82.3971L126.299 82.3413L126.534 81.7865L126.527 81.7351L125.899 80.9557Z" fill="#FFE38E"/>
<path d="M127.902 81.7425C128.022 81.515 128.074 81.2596 128.05 81.01C128.024 80.7062 127.883 80.4303 127.716 80.1661L127.746 80.1309L127.858 80.1499L128.153 81.0673L128.194 81.1055L129.226 81.4166L129.241 81.515L128.335 82.0389L128.307 82.0844L128.293 83.0356L128.19 83.0781L127.334 82.4851L127.275 82.4749L126.236 82.7523L126.158 82.6804L126.301 82.3442L126.458 82.4C127.051 82.5644 127.66 82.2048 127.902 81.7454V81.7425Z" fill="#FAD882"/>
<path d="M94.9421 40.3677C94.9641 40.6172 94.9127 40.8726 94.7924 41.1001C94.5502 41.5595 93.9396 41.9191 93.3481 41.7548L93.1925 41.699L93.0501 42.0351L93.4273 41.1442L93.42 41.0928L92.7933 40.3119L92.8476 40.2253L93.9352 40.2679L93.988 40.2459L94.6397 39.4871L94.6089 39.5223C94.7762 39.785 94.9171 40.0624 94.9435 40.3662L94.9421 40.3677Z" fill="#FFE38E"/>
<path d="M95.08 42.4329L94.2258 41.8399L94.1671 41.8296L93.1264 42.107L93.0486 42.0351L93.191 41.699L93.3466 41.7547C93.9396 41.9191 94.5487 41.5595 94.7909 41.1001C94.9112 40.8726 94.9626 40.6172 94.9406 40.3677C94.9142 40.0639 94.7733 39.7865 94.6059 39.5238L94.6368 39.4885L94.7483 39.5076L95.0448 40.425L95.0859 40.4617L96.1163 40.7728L96.1309 40.8712L95.2268 41.3951L95.1974 41.4406L95.1828 42.3918L95.08 42.4329Z" fill="#FAD882"/>
<path d="M88.2593 14.3371L88.3136 14.2505L89.4013 14.2931L89.4541 14.271L90.1072 13.5122L90.0764 13.5474C90.2438 13.8102 90.3832 14.0876 90.4111 14.3914C90.4331 14.6409 90.3832 14.8978 90.2628 15.1238C90.0192 15.5832 89.4101 15.9428 88.8171 15.7784L88.6615 15.7227L88.5191 16.0588L88.8963 15.1678L88.889 15.1165L88.2608 14.3371H88.2593Z" fill="#FFE38E"/>
<path d="M88.8156 15.7799C89.4086 15.9443 90.0177 15.5847 90.2614 15.1253C90.3818 14.8978 90.4331 14.6424 90.4096 14.3929C90.3832 14.089 90.2423 13.8116 90.075 13.5489L90.1058 13.5137L90.2159 13.5328L90.5124 14.4501L90.5535 14.4883L91.5853 14.7994L91.6 14.8978L90.6958 15.4218L90.668 15.4673L90.6533 16.4184L90.5505 16.4609L89.6948 15.868L89.6361 15.8577L88.597 16.1351L88.5192 16.0632L88.6615 15.7271L88.8171 15.7828L88.8156 15.7799Z" fill="#FAD882"/>
<path d="M69.4882 1.61153C69.2445 2.07094 68.6354 2.43054 68.0424 2.26616L67.8868 2.21038L67.7445 2.5465L68.1217 1.65557L68.1143 1.6042L67.4861 0.823347L67.5405 0.736749L68.6295 0.779314L68.6824 0.757297L69.3047 0.0336914C69.472 0.297888 69.6115 0.573827 69.6393 0.877654C69.6614 1.12717 69.6115 1.38256 69.4911 1.61007L69.4882 1.61153Z" fill="#FFE38E"/>
<path d="M69.8918 1.95212L69.8771 2.90323L69.7744 2.94579L68.9187 2.35282L68.8599 2.34401L67.8208 2.61995L67.743 2.54803L67.8854 2.21191L68.0409 2.26769C68.6339 2.43208 69.243 2.07247 69.4867 1.61307C69.607 1.38556 69.6584 1.13017 69.6349 0.880653C69.6085 0.576827 69.4676 0.300888 69.3003 0.0366911L69.3311 0.00146484L69.4412 0.019078L69.7377 0.936428L69.7788 0.97459L70.8106 1.28576L70.8253 1.3841L69.9211 1.90809L69.8932 1.95359L69.8918 1.95212Z" fill="#FAD882"/>
<path fill-rule="evenodd" clip-rule="evenodd" d="M33.3035 19.9881C32.938 15.306 31.1987 10.7911 28.0372 7.08356C23.4769 1.73651 12.3087 2.32508 6.86621 6.00916C-0.469656 10.9746 -0.265637 21.0787 0.18203 29.0002C0.393388 32.7474 1.41348 36.8615 3.98206 39.866C7.09371 43.5075 12.3556 45.2835 17.0539 45.1206C20.9611 44.9855 24.2694 44.4072 27.4442 41.8842C30.3078 39.6091 32.5021 35.8179 32.9586 32.1661C33.4371 28.347 33.6059 23.8645 33.3035 19.9866V19.9881ZM19.6988 33.7425C17.349 36.7309 13.7368 34.2724 12.25 31.3442C10.929 28.7418 11.362 25.2618 11.4779 22.4158C11.588 19.7298 12.0533 15.6083 14.6321 14.0569C16.4771 12.9458 18.7697 13.5329 20.1861 15.0579C21.7126 16.7047 21.7977 19.3995 22.0619 21.5205C22.5742 25.6463 22.3775 30.3373 19.6988 33.744V33.7425Z" fill="#BAE4EB"/>
<path fill-rule="evenodd" clip-rule="evenodd" d="M32.2775 32.6724C32.1543 33.4973 32.1836 34.2649 31.4218 34.9313C30.8362 35.442 30.5133 36.1789 30.0172 36.7792C24.2078 43.8347 11.199 44.6346 5.02564 37.4103C2.45705 34.4043 1.43696 30.2917 1.2256 26.5445C0.852792 19.9425 0.923244 11.9271 5.62889 6.50661C8.53358 3.16452 13.4359 1.54118 17.9449 1.16396C21.8667 0.835184 26.6003 1.72171 29.0808 4.62788C32.2423 8.33544 33.9816 12.8503 34.3471 17.5324C34.7052 22.1353 33.6528 26.6076 33.3798 31.1797C30.9037 31.5466 32.4185 25.2044 32.5887 24.2225C33.1949 20.7263 32.3685 16.4096 31.3822 12.9765C29.7618 7.3359 25.6712 2.21194 18.7609 2.31322C14.9638 2.37046 10.7308 3.79419 7.81732 6.04427C2.38513 10.2391 2.72419 18.3191 2.77116 24.1961C2.81225 29.4492 4.90528 35.4993 9.68137 38.721C12.2367 40.4442 15.7931 41.0709 18.9048 40.9799C23.1055 40.8566 25.0943 39.1291 27.9799 36.6485C28.818 35.9249 32.1308 33.6675 32.2775 32.6724Z" fill="#2B3351"/>
<path fill-rule="evenodd" clip-rule="evenodd" d="M18.554 34.1696C15.661 34.5439 12.8371 31.8124 11.9168 28.8431C10.8013 25.2456 11.3576 21.2504 11.632 17.556C11.8507 14.619 14.0817 9.78424 17.1317 9.37914C20.694 8.90505 22.8589 13.6929 23.5591 16.8001C24.6834 21.7876 25.0283 31.0007 20.0643 33.6779C19.5638 33.9465 19.0589 34.1065 18.554 34.1711V34.1696ZM22.9441 21.0508C22.7034 18.8609 22.084 16.6416 21.5189 14.4209C21.3398 13.7193 20.9729 12.9825 20.4885 12.4746C19.7884 11.7408 19.1279 10.7353 17.9757 10.8058C13.8953 11.0524 12.6683 16.3114 12.5186 19.9602C12.4026 22.8062 11.9696 26.2863 13.2906 28.8886C14.7775 31.8183 18.3881 34.2768 20.7395 31.2884C22.9514 28.4762 23.3389 24.6512 22.9426 21.0522L22.9441 21.0508Z" fill="#2B3351"/>
<path d="M67.156 26.3772C67.0312 21.9754 67.1428 17.3622 64.3144 14.1463C63.0198 12.6756 60.7242 12.0577 58.4066 12.1061C53.1036 12.2148 52.3859 15.4967 52.3859 15.4967C52.3859 16.1337 52.5092 13.5534 50.9372 13.5651C49.0511 13.5798 46.349 13.6091 44.1136 13.5812C42.7706 13.5651 42.6135 13.2848 42.6414 15.0167C42.6957 18.3324 42.6825 30.7364 42.6825 33.5736C42.6825 34.8286 42.822 35.8575 44.1591 35.8883C46.4503 35.9411 48.0545 35.9294 49.9142 35.9294C51.5199 35.9294 52.2523 35.5991 52.2215 33.7703C52.1628 30.4649 52.2494 21.3075 52.2494 21.3075C52.2494 21.3075 52.7734 20.0981 54.815 20.0453C56.5837 19.9998 57.8504 20.6867 57.9076 25.2852C57.9414 27.9095 57.6757 31.7712 57.7975 33.9406C57.8812 35.4421 58.916 35.922 59.1772 35.9279C61.3363 35.9719 62.2992 35.9851 65.4181 35.9543C66.6056 35.9426 67.0679 35.1911 67.0855 34.3545C67.1413 31.7947 67.2162 28.5128 67.1545 26.3757L67.156 26.3772Z" fill="#F4AA49"/>
<path d="M67.2176 32.7385C67.3424 30.9757 67.3908 29.2643 67.3071 27.4971C67.1354 23.8556 67.1941 20.1994 66.1212 16.6577C65.2904 13.9188 63.7067 11.5425 60.918 10.6193C59.2756 10.0777 57.5964 10.1717 55.9731 10.7162C55.1658 10.9863 54.2881 11.318 53.5557 11.7598C53.1726 11.9902 52.4285 12.8679 51.9676 12.6492C51.8604 12.5979 51.5331 11.9374 51.3423 11.7847C50.4939 11.1022 49.3814 11.2475 48.3789 11.3561C47.281 11.475 46.1714 11.431 45.0544 11.5235C44.1928 11.5954 43.0715 11.3371 42.4139 12.0841C41.2368 13.4227 42.1541 28.1238 42.1409 29.2922C42.1116 30.7247 42.0059 32.8016 42.6532 34.102C43.4208 35.6432 45.6254 35.0296 47.0183 35.0546C48.2762 35.0766 50.2576 35.3716 51.3775 34.6392C52.4226 33.9567 52.4285 33.1289 52.471 32.0486C52.5723 29.5241 52.2875 26.976 52.4138 24.4368C52.4828 23.0424 52.3198 20.9421 53.5219 19.9455C55.4946 18.3104 56.8317 20.854 56.8567 22.5566C56.8904 24.9006 56.7716 27.2373 57.0137 29.5754C57.1444 30.8421 56.8303 32.1264 56.9844 33.4004C57.3058 36.0527 60.871 35.4274 62.8584 35.5037C64.0751 35.5507 65.7117 35.5331 66.5865 34.5335C66.9901 34.0727 67.1648 33.4445 67.2147 32.7385H67.2176ZM66.3722 29.4243C66.3105 30.6205 66.8712 33.0643 65.9862 34.0418C65.1319 34.9841 62.0056 34.5497 60.8387 34.491C59.7115 34.4352 58.6385 34.3515 58.2863 33.1685C58.0397 32.3422 58.1248 31.4072 58.1527 30.5574C58.2437 27.7862 58.3876 25.1076 58.1058 22.3335C57.8915 20.2273 56.7481 18.2267 54.4202 18.4762C52.2332 18.7111 51.0664 20.8481 51.0722 22.903C51.0796 25.4055 51.2087 27.9433 51.2352 30.459C51.2601 32.1866 51.969 33.3491 49.8936 33.8863C48.216 34.3207 46.4473 34.033 44.7403 34.0418C43.1346 34.0507 43.0612 32.9425 42.9849 31.5305C42.8337 28.7506 42.932 16.4625 42.8748 15.0402C42.8352 14.0289 43.0363 13.0206 44.1914 12.7916C45.5432 12.523 47.0095 12.545 48.3804 12.5641C49.0555 12.5729 49.8643 12.5201 50.5174 12.7226C51.3731 12.9868 51.2836 13.9599 52.0043 14.2462C52.4329 14.4164 52.6413 13.8616 53.0229 13.5255C53.7538 12.8826 54.7842 12.2133 55.7045 11.8669C57.5994 11.1565 59.8157 11.0171 61.6533 11.8919C67.539 14.6938 66.403 28.7755 66.3692 29.4257L66.3722 29.4243Z" fill="#2B3351"/>
<path d="M52.9363 14.1712C52.9363 14.1712 52.9363 14.1698 52.9363 14.1683V14.1243V14.1375C52.9363 14.1375 52.9348 14.1257 52.9333 14.1213C52.9656 14.1345 52.97 14.1507 52.9363 14.1712Z" fill="#2B3351"/>
<path d="M42.9511 12.6272C42.9511 12.6272 42.9541 12.6345 42.9511 12.6345C42.9511 12.6389 42.9467 12.6419 42.9438 12.6463C42.9467 12.6404 42.9497 12.6345 42.9526 12.6287L42.9511 12.6272Z" fill="#2B3351"/>
<path d="M30.2565 91.0965C29.4727 89.1062 28.592 87.0381 27.3782 85.265C26.3273 83.7312 25.9192 84.4548 24.2739 85.1667C22.3643 85.9916 19.5976 87.612 17.4312 86.7592C14.1478 85.4676 14.6336 78.2183 14.6674 75.478C14.7041 72.428 17.2418 69.764 20.2816 69.7273C21.0918 69.7185 22.0664 69.5938 22.8531 69.7581C23.5576 69.9049 24.1579 70.3937 24.9138 70.3922C26.5489 70.3878 28.4864 64.2584 29.3142 63.049C28.9208 63.6244 26.0455 61.4095 25.567 61.204C24.1036 60.5714 22.5052 60.341 20.9656 59.9755C15.253 58.6208 8.44555 59.9021 4.48407 64.4375C1.21977 68.1759 0.224625 73.3219 0.0470261 78.142C-0.133508 83.0839 0.108672 88.5161 2.52314 92.9561C6.30849 99.9177 15.617 100.826 22.6138 99.4641C25.8987 98.8257 28.774 97.5018 31.623 95.7023C31.805 95.5878 30.4267 91.5338 30.255 91.0965H30.2565Z" fill="#E4614B"/>
<path d="M31.6567 94.7189C32.4258 94.1744 33.0482 93.5285 33.2962 92.5936C33.6044 91.4267 32.9469 90.4477 32.5198 89.3645C31.6817 87.2377 30.5544 84.8468 29.2745 82.9695C29.4932 83.2895 28.1913 83.1016 28.14 83.1089C27.7275 83.1588 27.3591 83.3115 26.9804 83.4759C26.2231 83.8061 25.545 84.3345 24.77 84.6236C23.2479 85.1887 21.607 85.6628 20.0012 85.3766C14.2153 84.3418 14.8567 75.0773 16.0574 71.0909C16.4992 69.6231 17.3813 68.6852 18.8344 68.1627C20.3535 67.6167 22.1632 67.4024 23.7675 67.3892C24.6159 67.3833 25.247 67.5301 26.022 67.8046C26.5269 67.9836 26.3229 68.3256 27.0318 68.0115C27.5338 67.7899 27.7774 67.1059 28.0607 66.6817C28.2911 66.3368 30.7584 62.7951 30.619 62.7496C30.4943 62.7085 30.3768 62.6557 30.2565 62.6058C30.0789 62.6762 29.8983 62.7393 29.7134 62.7892C29.5989 62.936 29.4815 63.0916 29.3611 63.2648C28.7594 64.1308 27.8303 66.6509 26.7911 67.0325C26.2612 67.2277 25.1252 66.6289 24.5865 66.5115C23.6119 66.3001 22.5581 66.0961 21.5585 66.1944C20.2449 66.3236 18.8564 66.6568 17.6822 67.2982C14.776 68.8849 14.4414 72.1359 14.3034 75.1155C14.1566 78.28 14.1742 81.8452 15.9957 84.5855C17.1039 86.2529 18.9503 86.4187 20.7204 86.5435C22.106 86.6404 23.4622 86.4128 24.7876 86.0136C25.1134 85.9153 28.614 84.5591 28.57 84.4769C29.2481 85.7538 30.142 86.9192 30.7174 88.252C31.0036 88.9124 31.2208 89.6052 31.3778 90.3083C31.5232 90.9629 31.9283 91.7452 31.9591 92.3984C32.0618 94.6455 25.9603 96.1397 24.1168 96.5463C21.0111 97.2288 17.7174 97.5326 14.5881 96.8222C11.1888 96.0516 7.91276 94.4709 6.27474 91.2433C4.84367 88.4207 4.76588 85.1256 4.25216 82.0624C3.9454 80.235 3.5814 78.2345 3.57553 76.3836C3.56819 74.2539 4.10392 72.1389 4.17437 70.0224C4.23895 68.0277 5.51737 65.9082 6.58003 64.2526C9.70636 59.3782 16.4713 57.4862 21.9563 58.7177C23.8864 59.1507 28.1899 60.3249 29.0015 62.368C29.1674 62.2726 29.5696 61.9012 29.6899 61.7325C28.1062 58.4784 20.7307 57.5141 17.8011 57.6491C12.2382 57.906 6.64608 60.8665 4.20666 66.055C2.68166 69.2944 2.40425 73.1531 2.43214 76.7432C2.44241 78.1215 2.33674 79.4204 2.54663 80.7869C2.72129 81.9259 2.98549 83.0443 3.16896 84.1833C3.93366 88.9286 5.11961 93.8999 9.82378 96.2057C11.5543 97.0541 13.3405 97.7733 15.2339 98.0566C18.8799 98.6011 23.0145 97.8951 26.4946 96.9103C28.2486 96.4142 30.0936 95.8094 31.6024 94.76C31.6215 94.7468 31.6406 94.7336 31.6582 94.7218L31.6567 94.7189Z" fill="#2B3351"/>
<path d="M60.8432 83.6387C59.9023 83.4259 58.7663 84.2346 57.526 84.5825C56.0729 84.989 54.2882 85.3193 52.8732 84.6074C51.8297 84.082 51.4935 83.1088 51.0239 82.0315C53.4178 82.1768 60.4469 81.5926 61.3173 81.5427C63.676 81.4048 64.1676 81.0892 64.0223 78.9257C63.9343 77.6179 64.0223 68.6984 54.3982 67.3113C50.8198 66.7962 40.8493 67.7047 40.9521 79.2868C41.0563 91.0964 48.9866 92.2251 52.499 92.2251C56.7966 92.2251 59.2815 91.0391 61.4405 90.0528C61.9132 89.8371 63.5497 89.2676 63.0815 87.4417C62.7542 86.1706 62.1876 85.0492 61.9528 84.6192C61.624 84.0159 61.2512 83.7297 60.8417 83.6372L60.8432 83.6387ZM51.7944 74.0484C52.8292 73.404 54.6463 73.3394 55.662 73.9618C56.8377 74.6824 57.5759 77.2628 55.8454 77.6576C55.524 77.731 52.1217 77.7339 50.4558 77.7765C50.6041 76.5744 50.2665 75.0009 51.7944 74.0484Z" fill="#E79D9E"/>
<path d="M64.2909 78.2786C64.9397 75.8788 63.6715 72.8141 62.5091 70.8546C61.7664 69.6041 60.8211 68.3653 59.5765 67.58C56.9668 65.9332 53.2901 65.1421 50.2224 65.487C46.6162 65.8936 43.0157 68.0732 41.2368 71.2671C38.7313 75.7672 39.1364 81.967 41.7476 86.2485C42.5916 87.6297 43.2388 88.4766 44.5598 89.3381C49.2126 92.3793 54.592 92.0682 59.4972 89.912C60.6377 89.4101 62.4415 88.9492 62.9949 87.6942C63.6979 86.0988 62.4592 82.4382 60.6744 81.9494C58.8309 81.4445 57.2618 83.2777 55.5475 83.4436C53.9784 83.5948 51.7797 83.0987 51.5376 81.3741C51.5155 81.217 59.9654 80.7268 60.6729 80.6108C62.0012 80.3951 63.538 80.1676 64.1001 78.8363C64.1764 78.6543 64.241 78.4679 64.2924 78.2771L64.2909 78.2786ZM62.1876 79.3838C61.4405 79.8256 60.4292 79.7346 59.597 79.8065C57.096 80.0237 54.5699 80.0149 52.0836 80.1984C51.6109 80.2336 50.654 80.081 50.2885 80.4347C49.4915 81.2082 50.9563 82.5688 51.4289 83.0414C52.2113 83.8252 53.1359 84.0014 54.1957 84.107C55.3361 84.2201 56.1639 84.0322 57.2104 83.5581C58.166 83.1266 59.2521 82.2591 60.3544 82.6084C60.3603 82.6099 60.3676 82.6129 60.3749 82.6158C61.2468 82.8991 61.577 83.8707 61.7928 84.6692C62.0174 85.4926 62.603 86.7446 62.2258 87.5489C61.9102 88.2226 61.1984 88.3254 60.5922 88.5925C59.3387 89.1444 58.1161 89.6375 56.8318 90.0529C55.0044 90.6444 53.1213 90.7384 51.2205 90.6635C49.9465 90.6121 48.7738 90.2892 47.6054 89.7667C46.9053 89.4541 46.3065 88.9374 45.6063 88.5866C42.5534 87.0631 41.7828 83.2366 41.457 80.1118C41.137 77.0427 41.2309 73.8973 43.0011 71.2421C44.118 69.5718 45.7678 68.2846 47.5702 67.4245C50.1608 66.1901 53.0552 66.0301 56.3753 67.1485C60.4703 68.5268 61.7972 71.2715 62.3036 73.3865C62.5516 74.4198 62.6705 75.4781 62.8188 76.5275C62.9479 77.4375 63.0918 78.8422 62.1862 79.3779L62.1876 79.3838Z" fill="#2B3351"/>
<path d="M55.2877 72.4412C54.2661 71.6163 52.1746 71.7587 51.1515 72.472C50.0771 73.222 49.3961 74.5503 49.4665 76.0137C49.4988 76.708 49.5737 77.0617 50.2973 77.1042C52.1217 77.2129 54.1237 77.1043 55.9085 76.6757C57.9825 76.1796 56.2344 73.2044 55.2877 72.4397V72.4412ZM56.0979 75.9418C55.6341 75.9638 55.2025 76.1267 54.7343 76.1605C54.0665 76.2104 53.3972 76.1854 52.7279 76.2207C52.1437 76.2515 51.0958 76.548 50.5615 76.1487C49.8555 75.6203 50.5938 74.1423 51.0649 73.7284C51.2425 73.5713 51.4348 73.4348 51.6344 73.3189C52.3257 72.9182 53.1359 72.7626 53.9476 72.858C55.3845 73.0268 56.2769 74.5738 56.0979 75.9418Z" fill="#2B3351"/>
<path d="M96.7886 82.0801C96.6638 77.6782 96.7754 73.0651 93.947 69.8492C92.6524 68.3785 90.3569 67.7606 88.0393 67.809C82.7363 67.9176 82.0185 71.1996 82.0185 71.1996C82.0185 71.8366 82.1418 69.2562 80.5698 69.268C78.6838 69.2827 75.9816 69.312 73.7462 69.2841C72.4032 69.268 72.2462 68.9876 72.2741 70.7196C72.3284 74.0353 72.3152 86.4393 72.3152 89.2765C72.3152 90.5314 72.4546 91.5603 73.7917 91.5912C76.0829 91.644 77.6872 91.6322 79.5468 91.6322C81.1525 91.6322 81.885 91.302 81.8541 89.4732C81.7954 86.1678 81.882 77.0104 81.882 77.0104C81.882 77.0104 82.406 75.801 84.4477 75.7481C86.2163 75.7026 87.483 76.3896 87.5402 80.9881C87.574 83.6124 87.3083 87.4741 87.4302 89.6434C87.5138 91.145 88.5486 91.6249 88.8099 91.6308C90.9689 91.6748 91.9318 91.688 95.0508 91.6572C96.2382 91.6455 96.7005 90.894 96.7181 90.0573C96.7739 87.4976 96.8488 84.2157 96.7871 82.0786L96.7886 82.0801Z" fill="#F4AA49"/>
<path d="M96.8517 88.4414C96.9765 86.6786 97.0249 84.9672 96.9412 83.2C96.7695 79.5585 96.8282 75.9023 95.7553 72.3606C94.9245 69.6217 93.3408 67.2454 90.5521 66.3222C88.9096 65.7806 87.2305 65.8745 85.6072 66.4191C84.7999 66.6891 83.9222 67.0209 83.1898 67.4627C82.8067 67.6931 82.0625 68.5708 81.6017 68.3521C81.4945 68.3007 81.1672 67.6402 80.9764 67.4876C80.128 66.8051 79.0155 66.9504 78.013 67.059C76.9151 67.1779 75.8055 67.1339 74.6885 67.2263C73.8269 67.2983 72.7056 67.0399 72.048 67.787C70.8709 69.1256 71.7882 83.8267 71.775 84.9951C71.7457 86.4276 71.64 88.5045 72.2873 89.8049C73.0549 91.3461 75.2595 90.7325 76.6524 90.7575C77.9102 90.7795 79.8917 91.0745 81.0116 90.3421C82.0567 89.6596 82.0625 88.8318 82.1051 87.7515C82.2064 85.227 81.9216 82.6789 82.0479 80.1397C82.1168 78.7453 81.9539 76.645 83.156 75.6484C85.1287 74.0133 86.4658 76.5569 86.4908 78.2595C86.5245 80.6035 86.4056 82.9402 86.6478 85.2783C86.7785 86.545 86.4644 87.8293 86.6185 89.1033C86.9399 91.7556 90.5051 91.1303 92.4924 91.2066C93.7092 91.2536 95.3458 91.236 96.2206 90.2364C96.6242 89.7755 96.7989 89.1473 96.8488 88.4414H96.8517ZM96.0063 85.1271C95.9446 86.3234 96.5053 88.7672 95.6202 89.7447C94.766 90.687 91.6397 90.2526 90.4728 90.1939C89.3456 90.1381 88.2726 90.0544 87.9204 88.8714C87.6738 88.0451 87.7589 87.1101 87.7868 86.2603C87.8778 83.4891 88.0217 80.8105 87.7398 78.0364C87.5256 75.9302 86.3822 73.9296 84.0543 74.1791C81.8673 74.414 80.7005 76.551 80.7063 78.6059C80.7137 81.1084 80.8428 83.6462 80.8693 86.1619C80.8942 87.8895 81.6031 89.0519 79.5277 89.5891C77.8501 90.0236 76.0814 89.7359 74.3744 89.7447C72.7687 89.7535 72.6953 88.6454 72.619 87.2334C72.4678 84.4535 72.5661 72.1654 72.5089 70.7431C72.4693 69.7318 72.6703 68.7235 73.8255 68.4945C75.1773 68.2259 76.6436 68.2479 78.0145 68.267C78.6896 68.2758 79.4984 68.223 80.1515 68.4255C81.0072 68.6897 80.9177 69.6628 81.6384 69.949C82.0669 70.1193 82.2754 69.5645 82.657 69.2284C83.3879 68.5855 84.4183 67.9162 85.3386 67.5698C87.2335 66.8594 89.4498 66.72 91.2874 67.5947C97.1731 70.3967 96.0371 84.4784 96.0033 85.1286L96.0063 85.1271Z" fill="#2B3351"/>
<path d="M82.5704 69.8741C82.5704 69.8741 82.5704 69.8727 82.5704 69.8712V69.8272V69.8404C82.5704 69.8404 82.5689 69.8286 82.5674 69.8242C82.5997 69.8374 82.6041 69.8536 82.5704 69.8741Z" fill="#2B3351"/>
<path d="M72.5852 68.3286C72.5852 68.3286 72.5882 68.336 72.5852 68.336C72.5852 68.3404 72.5808 68.3433 72.5779 68.3477C72.5808 68.3418 72.5838 68.336 72.5867 68.3301L72.5852 68.3286Z" fill="#2B3351"/>
<path d="M121.89 74.9319C120.621 74.9583 118.758 74.7 118.718 75.6849C118.689 76.407 118.762 87.1642 118.732 88.3663C118.705 89.3541 119.193 90.0674 120.443 90.2025C121.611 90.3272 122.179 89.9089 122.655 89.953C123.505 90.0307 123.546 90.0865 123.914 90.703C124.196 91.1741 125.872 94.5544 126.043 95.0431C126.495 96.3362 126.612 96.7413 124.658 97.3681C122.426 98.0843 116.677 99.1279 113.727 97.3681C109.248 94.6982 109.772 89.6036 109.623 88.4779C109.589 88.2181 109.681 74.5444 109.654 74.9612C108.44 74.5738 105.795 75.4001 105.793 73.9059C105.793 71.7968 105.701 71.2478 105.827 69.8285C105.95 68.4591 107.376 68.8921 108.873 68.7864C110.041 68.7027 109.607 65.2931 109.636 63.6654C109.664 62.0802 109.844 61.8571 110.804 61.8718C113.081 61.9055 117.464 61.772 117.898 61.9965C118.443 62.2783 118.843 61.5738 118.691 64.8748C118.651 65.7525 118.607 68.7967 119.984 68.7556C120.97 68.7262 120.995 68.7306 121.861 68.7145C122.642 68.6983 123.082 69.1812 123.114 70.0663C123.133 70.5624 123.18 72.1931 123.114 73.5067C123.088 74.0542 123.114 74.9069 121.892 74.9319H121.89Z" fill="#7EA9B4"/>
<path d="M117.97 59.3003L117.99 59.3091H117.993C117.98 59.3033 117.965 59.2974 117.971 59.3003H117.97Z" fill="#2B3351"/>
<path d="M126.555 93.5094C126.517 92.4496 125.924 91.2343 125.304 90.066C124.924 89.3483 124.707 88.4896 124.181 87.8556C122.963 86.3863 120.659 88.4309 119.54 86.9C118.74 85.8066 119.028 84.0115 119.015 82.7463C119.003 81.5941 118.911 80.4067 118.856 79.2618C118.808 78.2138 118.755 77.1688 118.856 76.1443C118.986 74.8409 118.895 73.495 120.518 73.3761C121.542 73.3012 122.599 73.5581 123.128 72.5042C123.563 71.6353 123.383 70.4552 123.38 69.5203C123.374 67.577 123.153 66.096 120.964 65.8568C120.515 65.8068 119.496 65.9434 119.154 65.6469C117.37 64.0954 120.484 59.6584 116.755 59.4661C115.092 59.381 113.22 59.2753 111.573 59.4353C110.433 59.5468 109.339 60.1751 109.272 61.4168C109.218 62.4046 109.097 63.3205 109.037 64.2995C109.005 64.8352 109.083 65.7951 108.727 66.2325C108.327 66.7271 107.641 66.5598 107.01 66.5598C105.203 66.5569 105.303 67.8118 105.139 69.3075C105.03 70.2997 104.756 72.4543 105.836 73.0341C106.59 73.4392 107.709 72.993 108.371 73.5948C109.237 74.383 108.726 76.0445 108.745 77.0382C108.79 79.4585 108.802 81.7937 108.802 84.195C108.802 84.9949 108.829 85.7508 108.94 86.514C109.138 87.8629 109.113 89.1956 109.593 90.4755C110.053 91.7011 110.522 92.8724 111.22 93.9967C111.573 94.5661 112.105 95.1621 112.671 95.5716C114.67 97.0158 116.91 96.643 119.182 96.8045C120.949 96.9307 122.79 96.6005 124.46 96.031C126.07 95.482 126.589 94.5735 126.55 93.5094H126.555ZM122.856 88.7568C122.856 88.7568 122.853 88.7568 122.852 88.7582C122.849 88.7582 122.847 88.7582 122.846 88.7568C122.846 88.7568 122.844 88.7568 122.844 88.7553L122.856 88.7582V88.7568ZM117.731 60.6154C117.731 60.6154 117.736 60.6257 117.741 60.6374C117.738 60.633 117.735 60.6301 117.734 60.6257C117.731 60.6183 117.728 60.6051 117.728 60.611C117.728 60.6124 117.728 60.6139 117.732 60.6154H117.731ZM110.271 60.7504C110.261 60.7548 110.254 60.7563 110.255 60.7548C110.261 60.7548 110.264 60.7519 110.271 60.7504ZM108.581 65.8406C108.588 65.8406 108.611 65.8377 108.607 65.8391L108.586 65.8421L108.556 65.8479H108.551C108.562 65.845 108.572 65.8421 108.582 65.8406H108.581ZM106.385 71.8937C106.385 71.8937 106.383 71.8937 106.382 71.8937C106.358 71.879 106.372 71.879 106.385 71.8937ZM108.68 73.2645V73.3482C108.669 73.3188 108.667 73.291 108.68 73.2645ZM125.342 94.1449C125.335 94.1669 125.326 94.1875 125.317 94.208C125.108 94.6498 124.289 94.8289 123.859 94.961C123.063 95.2061 122.275 95.4703 121.463 95.6817C120.493 95.9341 119.454 95.9224 118.459 96.0046C116.8 96.1411 114.841 95.9209 113.382 95.0784C110.606 93.4771 110.197 90.0572 109.665 87.245C109.215 84.8554 109.636 82.1827 109.643 79.7183C109.651 77.5915 109.521 75.4001 109.727 73.2792C109.837 72.149 108.837 72.4162 108.03 72.4294C107.53 72.4367 107.039 72.5307 106.576 72.2797C106.06 72.0008 106.169 71.0702 106.193 70.5859C106.231 69.7933 105.943 68.0334 106.975 67.7472C107.597 67.574 108.299 67.8177 108.909 67.5946C109.438 67.4008 109.831 66.7917 109.947 66.2589C110.166 65.252 109.969 64.2349 110.016 63.2192C110.045 62.5939 109.891 61.5459 110.327 61.0454C110.743 60.5669 111.479 60.7078 112.053 60.7328C112.944 60.7724 113.841 60.6154 114.732 60.6154C115.454 60.6154 116.163 60.5699 116.876 60.5978C117.365 60.6168 117.788 60.4936 117.88 61.1276C117.992 61.8894 118.007 62.6908 118.007 63.4599C118.007 64.2349 118.033 64.9996 118.106 65.7672C118.285 67.6093 120.169 66.94 121.475 67.0075C122.25 67.0471 122.451 67.574 122.595 68.2536C122.772 69.0873 122.872 69.9841 122.916 70.8295C122.943 71.3535 122.995 71.9303 122.608 72.3384C122.109 72.8638 121.262 72.7376 120.607 72.7376C120.067 72.7376 119.36 72.5938 118.867 72.88C118.212 73.2616 118.409 74.1379 118.381 74.7617C118.357 75.2783 118.335 75.7964 118.318 76.3145C118.234 78.7745 118.357 81.2726 118.47 83.737C118.509 84.5736 118.55 85.4161 118.55 86.266C118.55 87.0586 118.664 87.9524 119.379 88.4294C120.152 88.9461 121.214 88.5542 122.066 88.4427C122.38 88.4016 122.722 88.4192 122.944 88.6452C123.458 89.1692 123.784 90.1629 124.093 90.8204C124.383 91.431 124.707 92.0078 124.931 92.6507C125.074 93.0588 125.501 93.6811 125.344 94.1449H125.342Z" fill="#2B3351"/>
<path d="M118.056 59.3399C118.056 59.3399 118.054 59.3384 118.052 59.3369C118.051 59.3369 118.049 59.3369 118.046 59.3369C118.049 59.3369 118.049 59.3384 118.052 59.3399C118.054 59.3399 118.055 59.3399 118.056 59.3399Z" fill="#2B3351"/>
<path d="M153.459 83.6387C152.518 83.4259 151.382 84.2346 150.142 84.5825C148.689 84.989 146.904 85.3193 145.489 84.6074C144.445 84.082 144.109 83.1088 143.64 82.0315C146.033 82.1768 153.063 81.5926 153.933 81.5427C156.292 81.4048 156.783 81.0892 156.638 78.9257C156.55 77.6179 156.638 68.6984 147.014 67.3113C143.435 66.7962 133.465 67.7047 133.568 79.2868C133.672 91.0964 141.602 92.2251 145.115 92.2251C149.412 92.2251 151.897 91.0391 154.056 90.0528C154.529 89.8371 156.165 89.2676 155.697 87.4417C155.37 86.1706 154.803 85.0492 154.568 84.6192C154.24 84.0159 153.867 83.7297 153.457 83.6372L153.459 83.6387ZM144.41 74.0484C145.445 73.404 147.262 73.3394 148.278 73.9618C149.453 74.6824 150.192 77.2628 148.461 77.6576C148.14 77.731 144.737 77.7339 143.071 77.7765C143.22 76.5744 142.882 75.0009 144.41 74.0484Z" fill="#E79D9E"/>
<path d="M156.907 78.2786C157.555 75.8788 156.287 72.8141 155.125 70.8546C154.382 69.6041 153.437 68.3653 152.192 67.58C149.582 65.9332 145.906 65.1421 142.838 65.487C139.232 65.8936 135.631 68.0732 133.852 71.2671C131.347 75.7672 131.752 81.967 134.363 86.2485C135.207 87.6297 135.855 88.4766 137.175 89.3381C141.828 92.3793 147.208 92.0682 152.113 89.912C153.253 89.4101 155.057 88.9492 155.611 87.6942C156.314 86.0988 155.075 82.4382 153.29 81.9494C151.447 81.4445 149.877 83.2777 148.163 83.4436C146.594 83.5948 144.395 83.0987 144.153 81.3741C144.131 81.217 152.581 80.7268 153.289 80.6108C154.617 80.3951 156.154 80.1676 156.716 78.8363C156.792 78.6543 156.857 78.4679 156.908 78.2771L156.907 78.2786ZM154.803 79.3838C154.056 79.8256 153.045 79.7346 152.213 79.8065C149.712 80.0237 147.186 80.0149 144.699 80.1984C144.227 80.2336 143.27 80.081 142.904 80.4347C142.107 81.2082 143.572 82.5688 144.045 83.0414C144.827 83.8252 145.752 84.0014 146.811 84.107C147.952 84.2201 148.78 84.0322 149.826 83.5581C150.782 83.1266 151.868 82.2591 152.97 82.6084C152.976 82.6099 152.983 82.6129 152.991 82.6158C153.862 82.8991 154.193 83.8707 154.408 84.6692C154.633 85.4926 155.219 86.7446 154.841 87.5489C154.526 88.2226 153.814 88.3254 153.208 88.5925C151.954 89.1444 150.732 89.6375 149.447 90.0529C147.62 90.6444 145.737 90.7384 143.836 90.6635C142.562 90.6121 141.389 90.2892 140.221 89.7667C139.521 89.4541 138.922 88.9374 138.222 88.5866C135.169 87.0631 134.398 83.2366 134.073 80.1118C133.753 77.0427 133.847 73.8973 135.617 71.2421C136.734 69.5718 138.383 68.2846 140.186 67.4245C142.776 66.1901 145.671 66.0301 148.991 67.1485C153.086 68.5268 154.413 71.2715 154.919 73.3865C155.167 74.4198 155.286 75.4781 155.434 76.5275C155.564 77.4375 155.707 78.8422 154.802 79.3779L154.803 79.3838Z" fill="#2B3351"/>
<path d="M147.902 72.4412C146.88 71.6163 144.789 71.7587 143.766 72.472C142.691 73.222 142.01 74.5503 142.081 76.0137C142.113 76.708 142.188 77.0617 142.911 77.1042C144.736 77.2129 146.738 77.1043 148.523 76.6757C150.597 76.1796 148.849 73.2044 147.902 72.4397V72.4412ZM148.712 75.9418C148.248 75.9638 147.817 76.1267 147.349 76.1605C146.681 76.2104 146.011 76.1854 145.342 76.2207C144.758 76.2515 143.71 76.548 143.176 76.1487C142.47 75.6203 143.208 74.1423 143.679 73.7284C143.857 73.5713 144.049 73.4348 144.249 73.3189C144.94 72.9182 145.75 72.7626 146.562 72.858C147.999 73.0268 148.891 74.5738 148.712 75.9418Z" fill="#2B3351"/>
<path d="M186.322 78.2726C186.811 77.4917 189.53 71.6808 189.737 71.1143C190.137 70.0105 189.811 69.9269 189.19 69.3926C188.588 68.873 187.614 68.578 186.134 68.3696C181.386 67.7017 176.252 69.7317 176.196 71.4856C176.293 70.6182 176.142 70.6784 176.196 69.5658C176.274 67.985 175.198 68.1714 174.788 68.1729C172.814 68.1773 169.538 68.0878 167.078 68.2037C165.684 68.2698 165.88 69.0433 165.863 70.6226C165.825 73.9896 165.624 86.9984 165.841 89.7064C165.93 90.8366 166.136 91.8596 167.417 91.8919C169.57 91.9477 172.179 91.9066 174.125 91.9066C175.805 91.9066 176.194 91.1522 176.194 89.7901C176.194 86.4524 176.36 82.8916 176.416 79.4145C176.437 78.1434 178.428 76.3718 179.956 76.4936C181.759 76.6375 182.435 77.4682 183.621 78.6366C185.045 80.0383 185.196 80.072 186.322 78.2755V78.2726Z" fill="#E4614B"/>
<path d="M185.93 76.4526C186.271 75.8611 188.34 71.6839 188.825 70.0811C189.219 68.7718 188.55 68.0438 187.327 67.6387C184.112 66.5702 180.841 66.7786 177.863 68.3579C177.124 68.7498 176.503 69.5131 175.772 69.8081C176.243 69.6173 175.208 67.5316 174.985 67.2923C174.22 66.4689 169.92 66.695 169.071 66.692C167.378 66.6862 166.231 67.5536 165.996 69.2738C165.74 71.1511 166.029 84.8952 166.111 86.2646C166.199 87.7485 166.312 88.9389 167.883 89.3073C169.017 89.573 173.068 89.2031 173.887 89.1502C175.122 89.0695 175.682 88.5367 175.682 87.204C175.682 85.5601 175.644 78.2433 176.315 76.3675C177.223 73.8253 180.658 74.0015 182.393 75.6688C183.773 76.9957 184.405 79.1049 185.933 76.4526H185.93ZM186.533 76.7799C185.971 77.8573 184.911 79.168 183.67 78.255C182.763 77.5872 182.416 76.3205 181.37 75.7995C180.479 75.3577 179.481 75.1449 178.577 75.6454C176.194 76.9663 176.911 79.2649 177.006 81.5105C177.078 83.1911 177.082 84.879 177.082 86.5787C177.082 87.8439 177.138 89.4291 175.913 90.1718C175.064 90.6855 173.89 90.6679 172.932 90.6899C171.006 90.7339 169.183 91.0407 167.243 90.7897C165.12 90.5138 165.241 87.6472 165.123 86.0078C164.912 83.0532 164.956 80.0897 165.01 77.1307C165.044 75.3092 164.947 73.4892 164.981 71.6677C165.006 70.2895 164.786 67.8471 165.681 66.6803C166.2 66.0036 167.359 66.008 168.178 65.9391C170.624 65.7321 173.172 65.5354 175.601 65.9978C177.002 66.2649 176.106 67.4817 176.852 68.1113C177.37 67.7312 177.658 67.2175 178.252 66.9137C179.889 66.0756 183.573 66.0022 185.111 66.2297C186.332 66.4102 187.897 66.6641 189.008 67.3011C190.33 68.0585 190.071 69.764 189.456 70.9265C188.613 72.5205 186.729 76.4013 186.532 76.7785L186.533 76.7799Z" fill="#2B3351"/>
</g>
<defs>
<clipPath id="clip0_6924_92819">
<rect width="189.961" height="100" fill="white"/>
</clipPath>
</defs>
</svg>
