<svg width="32" height="32" viewBox="0 0 32 32" fill="none" xmlns="http://www.w3.org/2000/svg">
<path d="M16 32C24.8366 32 32 24.8366 32 16C32 7.16344 24.8366 0 16 0C7.16344 0 0 7.16344 0 16C0 24.8366 7.16344 32 16 32Z" fill="#F27E73"/>
<path d="M20.8 8.19995H11.2C9.53331 8.19995 8.19998 9.53328 8.19998 11.2V20.8C8.19998 22.4666 9.53331 23.8 11.2 23.8H20.8C22.4667 23.8 23.8 22.4666 23.8 20.8V11.1999C23.8 9.53328 22.4667 8.19995 20.8 8.19995ZM21.6667 9.99995H22V12.6666H19.3333V9.99995H21.6667ZM13.8 14.4C14.2667 13.7333 15.1333 13.2666 16 13.2666C16.8667 13.2666 17.7333 13.7333 18.2 14.4C18.5333 14.8666 18.7333 15.4 18.7333 16C18.7333 17.5333 17.4667 18.7333 16 18.7333C14.5333 18.7333 13.2667 17.5333 13.2667 16C13.2667 15.4 13.4667 14.8666 13.8 14.4ZM22.2667 20.8C22.2667 21.6 21.6 22.2666 20.8 22.2666H11.2C10.4 22.2666 9.73332 21.6 9.73332 20.8V14.4H12.0666C11.8666 14.8666 11.7333 15.4666 11.7333 16C11.7333 18.3333 13.6667 20.2666 16 20.2666C18.3333 20.2666 20.2667 18.3333 20.2667 16C20.2667 15.4666 20.1333 14.8666 19.9333 14.4H22.2666L22.2667 20.8Z" fill="white"/>
</svg>
