<svg width="193" height="32" viewBox="0 0 193 32" fill="none" xmlns="http://www.w3.org/2000/svg">
<g clip-path="url(#clip0_6924_92498)">
<path fill-rule="evenodd" clip-rule="evenodd" d="M24.2027 13.7269C23.9371 10.3243 22.6731 7.04321 20.3755 4.34881C17.0613 0.462941 8.94506 0.890675 4.98986 3.56801C-0.341338 7.17761 -0.193071 14.5195 0.132262 20.2773C0.285862 23.0005 1.0272 25.9904 2.89386 28.1739C5.1552 30.8203 8.9792 32.1109 12.3936 31.9925C15.2331 31.8944 17.6373 31.4741 19.9445 29.6405C22.0256 27.9872 23.6203 25.232 23.952 22.5781C24.2997 19.8027 24.4224 16.5451 24.2027 13.7269ZM14.3157 23.7227C12.608 25.8944 9.98293 24.1077 8.9024 21.9797C7.9424 20.0885 8.25706 17.5595 8.34133 15.4912C8.42133 13.5392 8.75946 10.544 10.6336 9.41654C11.9744 8.60907 13.6405 9.03574 14.6699 10.144C15.7792 11.3408 15.8411 13.2992 16.0331 14.8405C16.4053 17.8389 16.2624 21.248 14.3157 23.7237V23.7227Z" fill="#BAE4EB"/>
<path fill-rule="evenodd" clip-rule="evenodd" d="M23.4571 22.9451C23.3675 23.5445 23.3888 24.1024 22.8352 24.5867C22.4096 24.9579 22.1749 25.4933 21.8144 25.9296C17.5925 31.0571 8.13866 31.6384 3.65226 26.3883C1.78559 24.2037 1.04426 21.2149 0.89066 18.4917C0.619727 13.6939 0.670927 7.8688 4.09066 3.92961C6.20159 1.50081 9.76426 0.322139 13.0411 0.0469387C15.8912 -0.191995 19.3312 0.452272 21.1339 2.56427C23.4315 5.25867 24.6955 8.53974 24.9611 11.9424C25.2213 15.2875 24.4565 18.5376 24.2581 21.8603C22.4587 22.1269 23.5595 17.5179 23.6832 16.8043C24.1237 14.2635 23.5232 11.1264 22.8064 8.63147C21.6288 4.53334 18.656 0.809605 13.6341 0.883205C10.8747 0.924805 7.79839 1.95947 5.68106 3.59467C1.73333 6.64321 1.97973 12.5152 2.01386 16.7861C2.04373 20.6037 3.56479 25.0005 7.03573 27.3419C8.89279 28.5941 11.4773 29.0496 13.7387 28.9835C16.7915 28.8939 18.2368 27.6384 20.3339 25.8357C20.9429 25.3099 23.3504 23.6693 23.4571 22.9461V22.9451Z" fill="#2B3351"/>
<path fill-rule="evenodd" clip-rule="evenodd" d="M13.4837 24.0331C11.3813 24.305 9.32906 22.32 8.66026 20.1621C7.84959 17.5477 8.25386 14.6443 8.45333 11.9595C8.61226 9.82505 10.2336 6.31145 12.4501 6.01705C15.0389 5.67252 16.6123 9.15198 17.1211 11.4101C17.9381 15.0347 18.1888 21.7301 14.5813 23.6757C14.2176 23.8709 13.8507 23.9872 13.4837 24.0341V24.0331ZM16.6741 14.4992C16.4992 12.9077 16.0491 11.2949 15.6384 9.68105C15.5083 9.17118 15.2416 8.63572 14.8896 8.26665C14.3808 7.73332 13.9008 7.00265 13.0635 7.05385C10.0981 7.23305 9.20639 11.0549 9.09759 13.7067C9.01333 15.7749 8.69866 18.304 9.65866 20.1952C10.7392 22.3243 13.3632 24.1109 15.072 21.9392C16.6795 19.8954 16.9611 17.1157 16.6731 14.5003L16.6741 14.4992Z" fill="#2B3351"/>
<path d="M48.8043 18.3712C48.7136 15.1722 48.7947 11.8197 46.7392 9.48263C45.7984 8.41383 44.1301 7.96476 42.4459 7.99996C38.592 8.07889 38.0704 10.464 38.0704 10.464C38.0704 10.9269 38.16 9.05169 37.0176 9.06023C35.6469 9.07089 33.6832 9.09223 32.0587 9.07196C31.0827 9.06023 30.9685 8.85649 30.9888 10.1152C31.0283 12.5248 31.0187 21.5392 31.0187 23.601C31.0187 24.513 31.12 25.2608 32.0917 25.2832C33.7568 25.3216 34.9227 25.313 36.2741 25.313C37.4411 25.313 37.9733 25.073 37.9509 23.744C37.9083 21.3418 37.9712 14.6869 37.9712 14.6869C37.9712 14.6869 38.352 13.808 39.8357 13.7696C41.1211 13.7365 42.0416 14.2357 42.0832 17.5776C42.1077 19.4848 41.9147 22.2912 42.0032 23.8677C42.064 24.9589 42.816 25.3077 43.0059 25.312C44.5749 25.344 45.2747 25.3536 47.5413 25.3312C48.4043 25.3226 48.7403 24.7765 48.7531 24.1685C48.7936 22.3082 48.848 19.9232 48.8032 18.3701L48.8043 18.3712Z" fill="#F4AA49"/>
<path d="M48.8491 22.9941C48.9397 21.713 48.9749 20.4693 48.9141 19.185C48.7893 16.5386 48.832 13.8816 48.0523 11.3077C47.4485 9.31731 46.2976 7.59038 44.2709 6.91944C43.0773 6.52584 41.8571 6.59411 40.6773 6.98984C40.0907 7.18611 39.4528 7.42718 38.9205 7.74824C38.6421 7.91571 38.1013 8.55358 37.7664 8.39464C37.6885 8.35731 37.4507 7.87731 37.312 7.76638C36.6955 7.27038 35.8869 7.37598 35.1584 7.45491C34.3605 7.54131 33.5541 7.50931 32.7424 7.57651C32.1163 7.62878 31.3013 7.44104 30.8235 7.98398C29.968 8.95678 30.6347 19.6405 30.6251 20.4896C30.6037 21.5306 30.5269 23.04 30.9973 23.985C31.5552 25.105 33.1573 24.6592 34.1696 24.6773C35.0837 24.6933 36.5237 24.9077 37.3376 24.3754C38.0971 23.8794 38.1013 23.2778 38.1323 22.4928C38.2059 20.6581 37.9989 18.8064 38.0907 16.961C38.1408 15.9477 38.0224 14.4213 38.896 13.697C40.3296 12.5088 41.3013 14.3573 41.3195 15.5946C41.344 17.2981 41.2576 18.9962 41.4336 20.6954C41.5285 21.616 41.3003 22.5493 41.4123 23.4752C41.6459 25.4026 44.2368 24.9482 45.6811 25.0037C46.5653 25.0378 47.7547 25.025 48.3904 24.2986C48.6837 23.9637 48.8107 23.5072 48.8469 22.9941H48.8491ZM48.2347 20.5856C48.1899 21.4549 48.5973 23.2309 47.9541 23.9413C47.3333 24.6261 45.0613 24.3104 44.2133 24.2677C43.3941 24.2272 42.6144 24.1664 42.3584 23.3066C42.1792 22.7061 42.2411 22.0266 42.2613 21.409C42.3275 19.3952 42.432 17.4485 42.2272 15.4325C42.0715 13.9018 41.2405 12.448 39.5488 12.6293C37.9595 12.8 37.1115 14.353 37.1157 15.8464C37.1211 17.665 37.2149 19.5093 37.2341 21.3376C37.2523 22.593 37.7675 23.4378 36.2592 23.8282C35.04 24.144 33.7547 23.9349 32.5141 23.9413C31.3472 23.9477 31.2939 23.1424 31.2384 22.1162C31.1285 20.096 31.2 11.1658 31.1584 10.1322C31.1296 9.39731 31.2757 8.66451 32.1152 8.49811C33.0976 8.30291 34.1632 8.31891 35.1595 8.33278C35.6501 8.33918 36.2379 8.30078 36.7125 8.44798C37.3344 8.63998 37.2693 9.34718 37.7931 9.55518C38.1045 9.67891 38.256 9.27571 38.5333 9.03144C39.0645 8.56424 39.8133 8.07784 40.4821 7.82611C41.8592 7.30984 43.4699 7.20851 44.8053 7.84424C49.0827 9.88051 48.2571 20.1141 48.2325 20.5866L48.2347 20.5856Z" fill="#2B3351"/>
<path d="M38.4704 9.5008C38.4704 9.5008 38.4704 9.49974 38.4704 9.49867V9.46667V9.47627C38.4704 9.47627 38.4693 9.46774 38.4683 9.46454C38.4917 9.47414 38.4949 9.48587 38.4704 9.5008Z" fill="#2B3351"/>
<path d="M31.2139 8.37756C31.2139 8.37756 31.216 8.3829 31.2139 8.3829C31.2139 8.3861 31.2107 8.38823 31.2085 8.39143C31.2107 8.38716 31.2128 8.3829 31.2149 8.37863L31.2139 8.37756Z" fill="#2B3351"/>
<path d="M76.0053 24.9237C75.4357 23.4773 74.7957 21.9744 73.9136 20.6858C73.1499 19.5712 72.8533 20.097 71.6576 20.6144C70.2699 21.2138 68.2592 22.3914 66.6848 21.7717C64.2987 20.833 64.6517 15.5648 64.6763 13.5733C64.7029 11.3568 66.5472 9.42078 68.7563 9.39411C69.3451 9.38771 70.0533 9.29705 70.6251 9.41651C71.1371 9.52318 71.5733 9.87838 72.1227 9.87731C73.3109 9.87411 74.7189 5.41971 75.3205 4.54078C75.0347 4.95891 72.9451 3.34931 72.5973 3.19998C71.5339 2.74025 70.3723 2.57278 69.2533 2.30718C65.1019 1.32265 60.1547 2.25385 57.2757 5.54985C54.9035 8.26665 54.1813 12.0053 54.0523 15.5082C53.9211 19.0997 54.0971 23.0474 55.8517 26.2741C58.6027 31.3333 65.3675 31.9936 70.4523 31.0037C72.8395 30.5397 74.9291 29.5776 76.9995 28.2698C77.1317 28.1866 76.1301 25.2405 76.0053 24.9226V24.9237Z" fill="#E4614B"/>
<path d="M77.024 27.5562C77.5829 27.1605 78.0352 26.6912 78.2155 26.0117C78.4395 25.1637 77.9616 24.4522 77.6512 23.665C77.0421 22.1194 76.2229 20.3818 75.2928 19.0176C75.4517 19.2501 74.5056 19.1136 74.4683 19.1189C74.1685 19.1552 73.9008 19.2661 73.6256 19.3856C73.0752 19.6256 72.5824 20.0096 72.0192 20.2197C70.9131 20.6304 69.7205 20.9749 68.5536 20.7669C64.3488 20.0149 64.8149 13.2821 65.6875 10.385C66.0085 9.31838 66.6496 8.63678 67.7056 8.25705C68.8096 7.86025 70.1248 7.70452 71.2907 7.69492C71.9072 7.69065 72.3659 7.79732 72.9291 7.99678C73.296 8.12692 73.1477 8.37545 73.6629 8.14718C74.0277 7.98612 74.2048 7.48905 74.4107 7.18078C74.5781 6.93012 76.3712 4.35625 76.2699 4.32318C76.1792 4.29332 76.0939 4.25492 76.0064 4.21865C75.8773 4.26985 75.7461 4.31572 75.6117 4.35198C75.5285 4.45865 75.4432 4.57172 75.3557 4.69758C74.9184 5.32692 74.2432 7.15838 73.488 7.43572C73.1029 7.57758 72.2773 7.14238 71.8859 7.05705C71.1776 6.90345 70.4117 6.75518 69.6853 6.82665C68.7307 6.92052 67.7216 7.16265 66.8683 7.62878C64.7563 8.78185 64.5131 11.1445 64.4128 13.3098C64.3061 15.6096 64.3189 18.2005 65.6427 20.192C66.448 21.4037 67.7899 21.5243 69.0763 21.6149C70.0832 21.6853 71.0688 21.52 72.032 21.2298C72.2688 21.1584 74.8128 20.1728 74.7808 20.113C75.2736 21.041 75.9232 21.888 76.3413 22.8565C76.5493 23.3365 76.7072 23.84 76.8213 24.3509C76.9269 24.8266 77.2213 25.3952 77.2437 25.8699C77.3184 27.5029 72.8843 28.5888 71.5445 28.8842C69.2875 29.3802 66.8939 29.601 64.6197 29.0848C62.1493 28.5248 59.7685 27.376 58.5781 25.0304C57.5381 22.9792 57.4816 20.5845 57.1083 18.3584C56.8853 17.0304 56.6208 15.5765 56.6165 14.2314C56.6112 12.6837 57.0005 11.1466 57.0517 9.60852C57.0987 8.15892 58.0277 6.61865 58.8 5.41545C61.072 1.87305 65.9883 0.498115 69.9744 1.39305C71.3771 1.70772 74.5045 2.56105 75.0944 4.04585C75.2149 3.97652 75.5072 3.70665 75.5947 3.58398C74.4437 1.21918 69.0837 0.518382 66.9547 0.616515C62.912 0.803182 58.848 2.95465 57.0752 6.72532C55.9669 9.07945 55.7653 11.8837 55.7856 14.4928C55.7931 15.4944 55.7163 16.4384 55.8688 17.4314C55.9957 18.2592 56.1877 19.072 56.3211 19.8997C56.8768 23.3482 57.7387 26.961 61.1573 28.6368C62.4149 29.2533 63.7131 29.776 65.0891 29.9818C67.7387 30.3776 70.7435 29.8645 73.2725 29.1488C74.5472 28.7882 75.888 28.3488 76.9845 27.5861C76.9984 27.5765 77.0123 27.5669 77.0251 27.5584L77.024 27.5562Z" fill="#2B3351"/>
<path d="M98.2347 19.504C97.5509 19.3493 96.7253 19.9371 95.824 20.1899C94.768 20.4853 93.4709 20.7253 92.4427 20.208C91.6843 19.8261 91.44 19.1189 91.0987 18.336C92.8384 18.4416 97.9467 18.0171 98.5792 17.9808C100.293 17.8805 100.651 17.6512 100.545 16.0789C100.481 15.1285 100.545 8.64639 93.5509 7.63839C90.9504 7.26399 83.7045 7.92425 83.7792 16.3413C83.8549 24.9237 89.6181 25.744 92.1707 25.744C95.2939 25.744 97.0997 24.8821 98.6688 24.1653C99.0123 24.0085 100.202 23.5947 99.8613 22.2677C99.6235 21.344 99.2117 20.5291 99.0411 20.2165C98.8021 19.7781 98.5312 19.5701 98.2336 19.5029L98.2347 19.504ZM91.6587 12.5344C92.4107 12.0661 93.7312 12.0192 94.4693 12.4715C95.3237 12.9952 95.8603 14.8704 94.6027 15.1573C94.3691 15.2107 91.8965 15.2128 90.6859 15.2437C90.7936 14.3701 90.5483 13.2267 91.6587 12.5344Z" fill="#E79D9E"/>
<path d="M100.739 15.6085C101.211 13.8645 100.289 11.6373 99.4443 10.2133C98.9045 9.30451 98.2176 8.40425 97.3131 7.83358C95.4165 6.63678 92.7445 6.06185 90.5152 6.31251C87.8944 6.60798 85.2779 8.19198 83.9851 10.513C82.1643 13.7834 82.4587 18.289 84.3563 21.4005C84.9696 22.4042 85.44 23.0197 86.4 23.6458C89.7813 25.856 93.6907 25.6298 97.2555 24.0629C98.0843 23.6981 99.3952 23.3632 99.7973 22.4512C100.308 21.2917 99.408 18.6314 98.1109 18.2762C96.7712 17.9093 95.6309 19.2416 94.3851 19.3621C93.2448 19.472 91.6469 19.1114 91.4709 17.8581C91.4549 17.744 97.5957 17.3877 98.1099 17.3034C99.0752 17.1466 100.192 16.9813 100.601 16.0138C100.656 15.8816 100.703 15.7461 100.74 15.6074L100.739 15.6085ZM99.2107 16.4117C98.6677 16.7328 97.9328 16.6666 97.328 16.7189C95.5104 16.8768 93.6747 16.8704 91.8677 17.0037C91.5243 17.0293 90.8288 16.9184 90.5632 17.1754C89.984 17.7376 91.0485 18.7264 91.392 19.0698C91.9605 19.6394 92.6325 19.7674 93.4027 19.8442C94.2315 19.9264 94.8331 19.7898 95.5936 19.4453C96.288 19.1317 97.0773 18.5013 97.8784 18.7552C97.8827 18.7562 97.888 18.7584 97.8933 18.7605C98.5269 18.9664 98.7669 19.6725 98.9237 20.2528C99.0869 20.8512 99.5125 21.761 99.2384 22.3456C99.0091 22.8352 98.4917 22.9098 98.0512 23.104C97.1403 23.505 96.2517 23.8634 95.3184 24.1653C93.9904 24.5952 92.6219 24.6634 91.2405 24.609C90.3147 24.5717 89.4624 24.337 88.6133 23.9573C88.1045 23.7301 87.6693 23.3546 87.1605 23.0997C84.9419 21.9925 84.3819 19.2117 84.1451 16.9408C83.9125 14.7104 83.9808 12.4245 85.2672 10.4949C86.0789 9.28105 87.2779 8.34558 88.5877 7.72051C90.4704 6.82345 92.5739 6.70718 94.9867 7.51998C97.9627 8.52158 98.9269 10.5162 99.2949 12.0533C99.4752 12.8042 99.5616 13.5733 99.6693 14.336C99.7632 14.9973 99.8677 16.0181 99.2096 16.4074L99.2107 16.4117Z" fill="#2B3351"/>
<path d="M94.1963 11.3664C93.4539 10.7669 91.9339 10.8704 91.1904 11.3888C90.4096 11.9338 89.9147 12.8992 89.9659 13.9626C89.9893 14.4672 90.0437 14.7242 90.5696 14.7552C91.8955 14.8341 93.3504 14.7552 94.6475 14.4437C96.1547 14.0832 94.8843 11.921 94.1963 11.3653V11.3664ZM94.7851 13.9104C94.448 13.9264 94.1344 14.0448 93.7941 14.0693C93.3088 14.1056 92.8224 14.0874 92.336 14.113C91.9115 14.1354 91.1499 14.3509 90.7616 14.0608C90.2485 13.6768 90.7851 12.6026 91.1275 12.3018C91.2565 12.1877 91.3963 12.0885 91.5413 12.0042C92.0437 11.713 92.6325 11.6 93.2224 11.6693C94.2667 11.792 94.9152 12.9162 94.7851 13.9104Z" fill="#2B3351"/>
<path d="M124.357 18.3712C124.267 15.1722 124.348 11.8197 122.292 9.48263C121.351 8.41383 119.683 7.96476 117.999 7.99996C114.145 8.07889 113.623 10.464 113.623 10.464C113.623 10.9269 113.713 9.05169 112.571 9.06023C111.2 9.07089 109.236 9.09223 107.612 9.07196C106.636 9.06023 106.522 8.85649 106.542 10.1152C106.581 12.5248 106.572 21.5392 106.572 23.601C106.572 24.513 106.673 25.2608 107.645 25.2832C109.31 25.3216 110.476 25.313 111.827 25.313C112.994 25.313 113.526 25.073 113.504 23.744C113.461 21.3418 113.524 14.6869 113.524 14.6869C113.524 14.6869 113.905 13.808 115.389 13.7696C116.674 13.7365 117.595 14.2357 117.636 17.5776C117.661 19.4848 117.468 22.2912 117.556 23.8677C117.617 24.9589 118.369 25.3077 118.559 25.312C120.128 25.344 120.828 25.3536 123.094 25.3312C123.957 25.3226 124.293 24.7765 124.306 24.1685C124.347 22.3082 124.401 19.9232 124.356 18.3701L124.357 18.3712Z" fill="#F4AA49"/>
<path d="M124.402 22.9941C124.493 21.713 124.528 20.4693 124.467 19.185C124.342 16.5386 124.385 13.8816 123.605 11.3077C123.002 9.31731 121.851 7.59038 119.824 6.91944C118.63 6.52584 117.41 6.59411 116.23 6.98984C115.644 7.18611 115.006 7.42718 114.474 7.74824C114.195 7.91571 113.654 8.55358 113.319 8.39464C113.242 8.35731 113.004 7.87731 112.865 7.76638C112.249 7.27038 111.44 7.37598 110.711 7.45491C109.914 7.54131 109.107 7.50931 108.295 7.57651C107.669 7.62878 106.854 7.44104 106.377 7.98398C105.521 8.95678 106.188 19.6405 106.178 20.4896C106.157 21.5306 106.08 23.04 106.55 23.985C107.108 25.105 108.71 24.6592 109.723 24.6773C110.637 24.6933 112.077 24.9077 112.891 24.3754C113.65 23.8794 113.654 23.2778 113.685 22.4928C113.759 20.6581 113.552 18.8064 113.644 16.961C113.694 15.9477 113.575 14.4213 114.449 13.697C115.883 12.5088 116.854 14.3573 116.873 15.5946C116.897 17.2981 116.811 18.9962 116.987 20.6954C117.082 21.616 116.853 22.5493 116.965 23.4752C117.199 25.4026 119.79 24.9482 121.234 25.0037C122.118 25.0378 123.308 25.025 123.943 24.2986C124.237 23.9637 124.364 23.5072 124.4 22.9941H124.402ZM123.788 20.5856C123.743 21.4549 124.15 23.2309 123.507 23.9413C122.886 24.6261 120.614 24.3104 119.766 24.2677C118.947 24.2272 118.167 24.1664 117.911 23.3066C117.732 22.7061 117.794 22.0266 117.814 21.409C117.881 19.3952 117.985 17.4485 117.78 15.4325C117.625 13.9018 116.794 12.448 115.102 12.6293C113.513 12.8 112.665 14.353 112.669 15.8464C112.674 17.665 112.768 19.5093 112.787 21.3376C112.805 22.593 113.321 23.4378 111.812 23.8282C110.593 24.144 109.308 23.9349 108.067 23.9413C106.9 23.9477 106.847 23.1424 106.791 22.1162C106.682 20.096 106.753 11.1658 106.711 10.1322C106.683 9.39731 106.829 8.66451 107.668 8.49811C108.651 8.30291 109.716 8.31891 110.713 8.33278C111.203 8.33918 111.791 8.30078 112.266 8.44798C112.887 8.63998 112.822 9.34718 113.346 9.55518C113.658 9.67891 113.809 9.27571 114.086 9.03144C114.618 8.56424 115.366 8.07784 116.035 7.82611C117.412 7.30984 119.023 7.20851 120.358 7.84424C124.636 9.88051 123.81 20.1141 123.786 20.5866L123.788 20.5856Z" fill="#2B3351"/>
<path d="M114.023 9.5008C114.023 9.5008 114.023 9.49974 114.023 9.49867V9.46667V9.47627C114.023 9.47627 114.022 9.46774 114.021 9.46454C114.045 9.47414 114.048 9.48587 114.023 9.5008Z" fill="#2B3351"/>
<path d="M106.767 8.37756C106.767 8.37756 106.769 8.3829 106.767 8.3829C106.767 8.3861 106.764 8.38823 106.762 8.39143C106.764 8.38716 106.766 8.3829 106.768 8.37863L106.767 8.37756Z" fill="#2B3351"/>
<path d="M142.599 13.1765C141.677 13.1957 140.323 13.008 140.294 13.7237C140.273 14.2485 140.326 22.0661 140.304 22.9397C140.285 23.6576 140.639 24.176 141.548 24.2741C142.397 24.3648 142.81 24.0608 143.155 24.0928C143.773 24.1493 143.803 24.1899 144.07 24.6379C144.275 24.9803 145.493 27.4368 145.617 27.792C145.946 28.7317 146.031 29.0261 144.611 29.4816C142.989 30.0021 138.811 30.7605 136.667 29.4816C133.412 27.5413 133.793 23.8389 133.684 23.0208C133.66 22.832 133.727 12.8949 133.707 13.1979C132.824 12.9163 130.902 13.5168 130.901 12.4309C130.901 10.8981 130.834 10.4992 130.926 9.46774C131.015 8.47254 132.051 8.78721 133.139 8.71041C133.988 8.64961 133.672 6.17174 133.694 4.98881C133.714 3.83681 133.845 3.67468 134.543 3.68534C136.197 3.70988 139.382 3.61281 139.698 3.77601C140.094 3.98081 140.385 3.46881 140.274 5.86774C140.245 6.50561 140.213 8.71788 141.214 8.68801C141.931 8.66668 141.949 8.66988 142.578 8.65814C143.146 8.64641 143.466 8.99734 143.489 9.64054C143.503 10.0011 143.537 11.1861 143.489 12.1408C143.47 12.5387 143.489 13.1584 142.601 13.1765H142.599Z" fill="#7EA9B4"/>
<path d="M139.75 1.81655L139.765 1.82295H139.767C139.758 1.81868 139.747 1.81441 139.751 1.81655H139.75Z" fill="#2B3351"/>
<path d="M145.988 26.6774C145.961 25.9072 145.53 25.024 145.079 24.175C144.803 23.6534 144.645 23.0294 144.263 22.5686C143.378 21.5008 141.703 22.9867 140.891 21.8742C140.309 21.0795 140.518 19.775 140.509 18.8555C140.5 18.0182 140.433 17.1552 140.394 16.3232C140.358 15.5616 140.32 14.8022 140.394 14.0576C140.487 13.1104 140.421 12.1323 141.601 12.0459C142.346 11.9915 143.114 12.1782 143.498 11.4123C143.814 10.7808 143.683 9.92323 143.681 9.24376C143.677 7.83149 143.516 6.75523 141.925 6.58136C141.599 6.54509 140.859 6.64429 140.61 6.42883C139.313 5.30136 141.577 2.07683 138.866 1.93709C137.658 1.87523 136.298 1.79843 135.101 1.91469C134.272 1.99576 133.477 2.45229 133.428 3.35469C133.389 4.07256 133.301 4.73816 133.258 5.44963C133.234 5.83896 133.291 6.53656 133.033 6.85443C132.741 7.21389 132.243 7.09229 131.785 7.09229C130.471 7.09016 130.544 8.00216 130.425 9.08909C130.346 9.81016 130.146 11.376 130.931 11.7974C131.479 12.0918 132.292 11.7675 132.773 12.2048C133.403 12.7776 133.031 13.9851 133.045 14.7072C133.078 16.4662 133.087 18.1632 133.087 19.9083C133.087 20.4896 133.106 21.039 133.187 21.5936C133.331 22.5739 133.313 23.5424 133.662 24.4726C133.996 25.3632 134.337 26.2144 134.844 27.0315C135.101 27.4454 135.487 27.8784 135.899 28.176C137.351 29.2256 138.979 28.9547 140.63 29.072C141.915 29.1638 143.252 28.9238 144.466 28.5099C145.636 28.111 146.013 27.4507 145.985 26.6774H145.988ZM143.3 23.2235C143.3 23.2235 143.298 23.2235 143.297 23.2246C143.295 23.2246 143.294 23.2246 143.293 23.2235C143.293 23.2235 143.292 23.2235 143.292 23.2224L143.3 23.2246V23.2235ZM139.575 2.77229C139.575 2.77229 139.58 2.77976 139.583 2.78829C139.581 2.78509 139.579 2.78296 139.578 2.77976C139.575 2.77443 139.573 2.76483 139.573 2.76909C139.573 2.77016 139.573 2.77123 139.577 2.77229H139.575ZM134.155 2.87043C134.147 2.87363 134.142 2.87469 134.143 2.87363C134.147 2.87363 134.149 2.87149 134.155 2.87043ZM132.926 6.56963C132.931 6.56963 132.948 6.56749 132.945 6.56856L132.93 6.57069L132.908 6.57496H132.905C132.912 6.57283 132.919 6.57069 132.927 6.56963H132.926ZM131.33 10.9686C131.33 10.9686 131.329 10.9686 131.328 10.9686C131.311 10.9579 131.321 10.9579 131.33 10.9686ZM132.998 11.9648V12.0256C132.99 12.0043 132.989 11.984 132.998 11.9648ZM145.107 27.1392C145.102 27.1552 145.095 27.1702 145.089 27.1851C144.937 27.5062 144.341 27.6363 144.029 27.7323C143.451 27.9104 142.878 28.1024 142.288 28.256C141.583 28.4395 140.828 28.431 140.105 28.4907C138.899 28.5899 137.475 28.4299 136.415 27.8176C134.398 26.6539 134.1 24.1686 133.714 22.1248C133.387 20.3883 133.693 18.4459 133.698 16.655C133.703 15.1094 133.61 13.5168 133.759 11.9755C133.839 11.1542 133.113 11.3483 132.526 11.3579C132.162 11.3632 131.806 11.4315 131.469 11.2491C131.094 11.0464 131.173 10.3702 131.19 10.0182C131.218 9.44216 131.009 8.16323 131.759 7.95523C132.211 7.82936 132.721 8.00643 133.165 7.84429C133.549 7.70349 133.835 7.26083 133.919 6.87363C134.078 6.14189 133.935 5.40269 133.969 4.66456C133.99 4.21016 133.878 3.44856 134.195 3.08483C134.497 2.73709 135.033 2.83949 135.45 2.85763C136.097 2.88643 136.749 2.77229 137.396 2.77229C137.921 2.77229 138.436 2.73923 138.955 2.75949C139.31 2.77336 139.617 2.68376 139.684 3.14456C139.765 3.69816 139.776 4.28056 139.776 4.83949C139.776 5.40269 139.795 5.95843 139.849 6.51629C139.979 7.85496 141.347 7.36856 142.297 7.41763C142.86 7.44643 143.006 7.82936 143.11 8.32323C143.239 8.92909 143.312 9.58083 143.344 10.1952C143.363 10.576 143.402 10.9952 143.12 11.2918C142.757 11.6736 142.142 11.5819 141.666 11.5819C141.274 11.5819 140.759 11.4774 140.401 11.6854C139.925 11.9627 140.068 12.5995 140.048 13.0528C140.031 13.4283 140.015 13.8048 140.002 14.1814C139.941 15.9691 140.031 17.7846 140.113 19.5755C140.141 20.1835 140.171 20.7958 140.171 21.4134C140.171 21.9894 140.254 22.639 140.773 22.9856C141.335 23.3611 142.107 23.0763 142.726 22.9952C142.955 22.9654 143.203 22.9782 143.364 23.1424C143.738 23.5232 143.974 24.2454 144.199 24.7232C144.41 25.167 144.645 25.5862 144.809 26.0534C144.912 26.3499 145.222 26.8022 145.108 27.1392H145.107Z" fill="#2B3351"/>
<path d="M139.813 1.84533C139.813 1.84533 139.811 1.84427 139.81 1.8432C139.809 1.8432 139.808 1.8432 139.806 1.8432C139.808 1.8432 139.808 1.84427 139.81 1.84533C139.811 1.84533 139.812 1.84533 139.813 1.84533Z" fill="#2B3351"/>
<path d="M165.541 19.504C164.858 19.3493 164.032 19.9371 163.131 20.1899C162.075 20.4853 160.778 20.7253 159.749 20.208C158.991 19.8261 158.747 19.1189 158.405 18.336C160.145 18.4416 165.253 18.0171 165.886 17.9808C167.6 17.8805 167.957 17.6512 167.852 16.0789C167.788 15.1285 167.852 8.64639 160.858 7.63839C158.257 7.26399 151.011 7.92425 151.086 16.3413C151.162 24.9237 156.925 25.744 159.477 25.744C162.601 25.744 164.406 24.8821 165.975 24.1653C166.319 24.0085 167.508 23.5947 167.168 22.2677C166.93 21.344 166.518 20.5291 166.348 20.2165C166.109 19.7781 165.838 19.5701 165.54 19.5029L165.541 19.504ZM158.965 12.5344C159.717 12.0661 161.038 12.0192 161.776 12.4715C162.63 12.9952 163.167 14.8704 161.909 15.1573C161.676 15.2107 159.203 15.2128 157.993 15.2437C158.1 14.3701 157.855 13.2267 158.965 12.5344Z" fill="#E79D9E"/>
<path d="M168.046 15.6085C168.517 13.8645 167.596 11.6373 166.751 10.2133C166.211 9.30451 165.524 8.40425 164.62 7.83358C162.723 6.63678 160.051 6.06185 157.822 6.31251C155.201 6.60798 152.585 8.19198 151.292 10.513C149.471 13.7834 149.765 18.289 151.663 21.4005C152.276 22.4042 152.747 23.0197 153.707 23.6458C157.088 25.856 160.997 25.6298 164.562 24.0629C165.391 23.6981 166.702 23.3632 167.104 22.4512C167.615 21.2917 166.715 18.6314 165.418 18.2762C164.078 17.9093 162.938 19.2416 161.692 19.3621C160.551 19.472 158.954 19.1114 158.778 17.8581C158.762 17.744 164.902 17.3877 165.417 17.3034C166.382 17.1466 167.499 16.9813 167.907 16.0138C167.963 15.8816 168.01 15.7461 168.047 15.6074L168.046 15.6085ZM166.517 16.4117C165.974 16.7328 165.239 16.6666 164.635 16.7189C162.817 16.8768 160.981 16.8704 159.174 17.0037C158.831 17.0293 158.135 16.9184 157.87 17.1754C157.291 17.7376 158.355 18.7264 158.699 19.0698C159.267 19.6394 159.939 19.7674 160.709 19.8442C161.538 19.9264 162.14 19.7898 162.9 19.4453C163.595 19.1317 164.384 18.5013 165.185 18.7552C165.189 18.7562 165.195 18.7584 165.2 18.7605C165.834 18.9664 166.074 19.6725 166.23 20.2528C166.394 20.8512 166.819 21.761 166.545 22.3456C166.316 22.8352 165.798 22.9098 165.358 23.104C164.447 23.505 163.558 23.8634 162.625 24.1653C161.297 24.5952 159.929 24.6634 158.547 24.609C157.621 24.5717 156.769 24.337 155.92 23.9573C155.411 23.7301 154.976 23.3546 154.467 23.0997C152.249 21.9925 151.689 19.2117 151.452 16.9408C151.219 14.7104 151.287 12.4245 152.574 10.4949C153.386 9.28105 154.585 8.34558 155.894 7.72051C157.777 6.82345 159.881 6.70718 162.293 7.51998C165.269 8.52158 166.234 10.5162 166.602 12.0533C166.782 12.8042 166.868 13.5733 166.976 14.336C167.07 14.9973 167.174 16.0181 166.516 16.4074L166.517 16.4117Z" fill="#2B3351"/>
<path d="M161.503 11.3664C160.761 10.7669 159.241 10.8704 158.497 11.3888C157.716 11.9338 157.221 12.8992 157.273 13.9626C157.296 14.4672 157.35 14.7242 157.876 14.7552C159.202 14.8341 160.657 14.7552 161.954 14.4437C163.461 14.0832 162.191 11.921 161.503 11.3653V11.3664ZM162.092 13.9104C161.755 13.9264 161.441 14.0448 161.101 14.0693C160.615 14.1056 160.129 14.0874 159.643 14.113C159.218 14.1354 158.457 14.3509 158.068 14.0608C157.555 13.6768 158.092 12.6026 158.434 12.3018C158.563 12.1877 158.703 12.0885 158.848 12.0042C159.35 11.713 159.939 11.6 160.529 11.6693C161.573 11.792 162.222 12.9162 162.092 13.9104Z" fill="#2B3351"/>
<path d="M189.423 15.6043C189.778 15.0368 191.755 10.8139 191.905 10.4022C192.195 9.60003 191.958 9.53923 191.507 9.15096C191.07 8.77336 190.362 8.55896 189.286 8.40749C185.836 7.92216 182.105 9.39736 182.064 10.672C182.134 10.0416 182.025 10.0854 182.064 9.27683C182.121 8.12803 181.339 8.26349 181.041 8.26456C179.606 8.26776 177.226 8.20269 175.438 8.28696C174.425 8.33496 174.567 8.89709 174.555 10.0448C174.527 12.4918 174.381 21.9456 174.539 23.9136C174.604 24.735 174.753 25.4784 175.684 25.5019C177.249 25.5424 179.145 25.5126 180.559 25.5126C181.78 25.5126 182.063 24.9643 182.063 23.9744C182.063 21.5488 182.183 18.9611 182.224 16.4342C182.239 15.5104 183.686 14.223 184.797 14.3115C186.107 14.416 186.598 15.0198 187.46 15.8688C188.495 16.8875 188.605 16.912 189.423 15.6064V15.6043Z" fill="#E4614B"/>
<path d="M189.138 14.2816C189.386 13.8518 190.89 10.816 191.242 9.65123C191.529 8.69976 191.042 8.17069 190.154 7.87629C187.817 7.09976 185.44 7.25123 183.276 8.39896C182.738 8.68376 182.287 9.23843 181.756 9.45283C182.098 9.31416 181.346 7.79843 181.184 7.62456C180.628 7.02616 177.503 7.19043 176.886 7.18829C175.655 7.18403 174.822 7.81443 174.652 9.06456C174.465 10.4288 174.675 20.4171 174.735 21.4123C174.799 22.4907 174.881 23.3558 176.022 23.6235C176.847 23.8166 179.791 23.5478 180.386 23.5094C181.283 23.4507 181.691 23.0635 181.691 22.095C181.691 20.9003 181.663 15.583 182.15 14.2198C182.811 12.3723 185.307 12.5003 186.567 13.712C187.57 14.6763 188.03 16.2091 189.14 14.2816H189.138ZM189.577 14.5195C189.168 15.3024 188.398 16.255 187.495 15.5915C186.836 15.1062 186.585 14.1856 185.824 13.807C185.177 13.4859 184.451 13.3312 183.794 13.695C182.063 14.655 182.583 16.3254 182.653 17.9574C182.705 19.1787 182.708 20.4054 182.708 21.6406C182.708 22.56 182.749 23.712 181.858 24.2518C181.242 24.6251 180.388 24.6123 179.692 24.6283C178.292 24.6603 176.967 24.8832 175.557 24.7008C174.015 24.5003 174.102 22.4171 174.017 21.2256C173.863 19.0784 173.895 16.9248 173.935 14.7744C173.959 13.4507 173.889 12.128 173.914 10.8043C173.932 9.80269 173.772 8.02776 174.422 7.17976C174.8 6.68803 175.642 6.69123 176.237 6.64109C178.015 6.49069 179.867 6.34776 181.632 6.68376C182.65 6.87789 181.999 7.76216 182.541 8.21976C182.917 7.94349 183.126 7.57016 183.558 7.34936C184.748 6.74029 187.425 6.68696 188.543 6.85229C189.43 6.98349 190.567 7.16803 191.375 7.63096C192.336 8.18136 192.147 9.42083 191.7 10.2656C191.088 11.424 189.718 14.2443 189.575 14.5184L189.577 14.5195Z" fill="#2B3351"/>
</g>
<defs>
<clipPath id="clip0_6924_92498">
<rect width="192.068" height="32" fill="white"/>
</clipPath>
</defs>
</svg>
