<svg width="48" height="49" viewBox="0 0 48 49" fill="none" xmlns="http://www.w3.org/2000/svg">
<rect y="0.5" width="48" height="48" rx="8" fill="#E0EBE9"/>
<path d="M36.6267 33.8333V15.1666C36.6267 12.5 35.2933 11.1666 32.6267 11.1666H27.2933C24.6267 11.1666 23.2933 12.5 23.2933 15.1666V33.8333C23.2933 36.5 24.6267 37.8333 27.2933 37.8333H32.6267C35.2933 37.8333 36.6267 36.5 36.6267 33.8333Z" stroke="#434A56" stroke-linecap="round"/>
<path d="M23.2933 16.5H29.96" stroke="#434A56" stroke-linecap="round"/>
<path d="M23.2933 32.5H28.6267" stroke="#434A56" stroke-linecap="round"/>
<path d="M23.2933 27.1L29.96 27.1666" stroke="#434A56" stroke-linecap="round"/>
<path d="M23.2933 21.8334H27.2933" stroke="#434A56" stroke-linecap="round"/>
<path d="M15.32 11.1666C13.1467 11.1666 11.3733 12.94 11.3733 15.1V32.38C11.3733 32.98 11.6267 33.8866 11.9333 34.4066L13.0267 36.22C14.28 38.3133 16.3467 38.3133 17.6 36.22L18.6933 34.4066C19 33.8866 19.2533 32.98 19.2533 32.38V15.1C19.2533 12.94 17.48 11.1666 15.32 11.1666Z" stroke="#434A56" stroke-linecap="round"/>
<path d="M19.2533 17.8334H11.3733" stroke="#292D32" stroke-linecap="round"/>
</svg>
