<svg width="89" height="39" viewBox="0 0 89 39" fill="none" xmlns="http://www.w3.org/2000/svg">
<g filter="url(#filter0_d_6924_92531)">
<rect x="2.5" y="1" width="84" height="31" rx="15.5" stroke="#ED5345" shape-rendering="crispEdges"/>
<path d="M20.818 21.5L18.214 17.454L15.624 21.5H14.28L17.612 16.53L14.364 11.7H15.694L18.228 15.606L20.748 11.7H22.078L18.83 16.516L22.162 21.5H20.818ZM26.1534 21.626C24.2634 21.626 22.7514 20.114 22.7514 18.238C22.7514 16.348 24.2634 14.836 26.1534 14.836C28.0154 14.836 29.4994 16.306 29.5414 18.182L29.5274 18.406H23.8154C23.8994 19.61 24.9074 20.562 26.1534 20.562C26.9654 20.562 27.7074 20.128 28.1274 19.442L29.1074 19.834C28.5474 20.926 27.4414 21.626 26.1534 21.626ZM23.9694 17.426H28.3094C27.9874 16.544 27.1474 15.914 26.1534 15.914C25.1454 15.914 24.2914 16.53 23.9694 17.426ZM38.7975 17.342C38.7975 16.544 38.1955 15.914 37.4255 15.914C36.6695 15.914 36.0535 16.544 36.0535 17.342V21.5H34.9895V17.342C34.9895 16.544 34.3735 15.914 33.6175 15.914C32.8475 15.914 32.2455 16.544 32.2455 17.342V21.5H31.1675V14.962H32.2455V15.536C32.6375 15.116 33.1555 14.836 33.7295 14.836C34.4015 14.836 35.0735 15.214 35.5215 15.788C35.9555 15.214 36.6555 14.836 37.4255 14.836C38.7975 14.836 39.8755 15.956 39.8755 17.342V21.5H38.7975V17.342ZM46.1423 21.5V15.97H44.7563V14.962H46.1423V12.61H47.2343V14.962H48.6203V15.97H47.2343V21.5H46.1423ZM53.8867 17.272C53.8867 16.474 53.2567 15.844 52.4727 15.844C51.6747 15.844 51.0447 16.446 51.0307 17.216V21.5H49.9527V11.7H51.0307V15.424C51.4507 15.06 51.9967 14.836 52.5987 14.836C53.9007 14.836 54.9647 15.9 54.9647 17.202V21.5H53.8867V17.272ZM59.9093 21.626C58.0193 21.626 56.5073 20.114 56.5073 18.238C56.5073 16.348 58.0193 14.836 59.9093 14.836C61.7713 14.836 63.2553 16.306 63.2973 18.182L63.2833 18.406H57.5713C57.6553 19.61 58.6633 20.562 59.9093 20.562C60.7213 20.562 61.4633 20.128 61.8833 19.442L62.8633 19.834C62.3033 20.926 61.1973 21.626 59.9093 21.626ZM57.7253 17.426H62.0653C61.7433 16.544 60.9033 15.914 59.9093 15.914C58.9013 15.914 58.0473 16.53 57.7253 17.426ZM58.1173 13.548L59.4053 11.658H60.4973L61.7993 13.548L61.2393 13.884L59.9653 12.358L58.6633 13.884L58.1173 13.548ZM72.5534 17.342C72.5534 16.544 71.9514 15.914 71.1814 15.914C70.4254 15.914 69.8094 16.544 69.8094 17.342V21.5H68.7454V17.342C68.7454 16.544 68.1294 15.914 67.3734 15.914C66.6034 15.914 66.0014 16.544 66.0014 17.342V21.5H64.9234V14.962H66.0014V15.536C66.3934 15.116 66.9114 14.836 67.4854 14.836C68.1574 14.836 68.8294 15.214 69.2774 15.788C69.7114 15.214 70.4114 14.836 71.1814 14.836C72.5534 14.836 73.6314 15.956 73.6314 17.342V21.5H72.5534V17.342Z" fill="#ED5345"/>
</g>
<defs>
<filter id="filter0_d_6924_92531" x="0" y="0.5" width="89" height="38" filterUnits="userSpaceOnUse" color-interpolation-filters="sRGB">
<feFlood flood-opacity="0" result="BackgroundImageFix"/>
<feColorMatrix in="SourceAlpha" type="matrix" values="0 0 0 0 0 0 0 0 0 0 0 0 0 0 0 0 0 0 127 0" result="hardAlpha"/>
<feOffset dy="4"/>
<feGaussianBlur stdDeviation="1"/>
<feComposite in2="hardAlpha" operator="out"/>
<feColorMatrix type="matrix" values="0 0 0 0 0 0 0 0 0 0 0 0 0 0 0 0 0 0 0.04 0"/>
<feBlend mode="normal" in2="BackgroundImageFix" result="effect1_dropShadow_6924_92531"/>
<feBlend mode="normal" in="SourceGraphic" in2="effect1_dropShadow_6924_92531" result="shape"/>
</filter>
</defs>
</svg>
